/* XPM */
static char *d87a23ed4d104abc8a039c47c8595841fV9KJZnrG8wrdqVT[] = {
/* columns rows colors chars-per-pixel */
"46 46 134 2 ",
"   c None",
".  c #5B0A00",
"X  c #5D0D00",
"o  c #411100",
"O  c #641200",
"+  c #671601",
"@  c #6B1C0F",
"#  c #69161E",
"$  c #51200F",
"%  c #72220B",
"&  c #652C11",
"*  c #6F2518",
"=  c #672A18",
"-  c #7C2E17",
";  c #7F311A",
":  c #7E3D1F",
">  c #631C2A",
",  c #651C2F",
"<  c #761A33",
"1  c #6B2327",
"2  c #6E232A",
"3  c #682A2B",
"4  c #6E2C2E",
"5  c #722722",
"6  c #712527",
"7  c #712822",
"8  c #712C27",
"9  c #752C26",
"0  c #7D2B20",
"q  c #782B25",
"w  c #72212A",
"e  c #7D262F",
"r  c #752B2A",
"t  c #732B2E",
"y  c #712D2E",
"u  c #78282B",
"i  c #782F28",
"p  c #782E2B",
"a  c #76302E",
"s  c #78332C",
"d  c #682931",
"f  c #6F2B36",
"g  c #6F2D37",
"h  c #6D2E36",
"j  c #732A31",
"k  c #722B31",
"l  c #772A32",
"z  c #762B32",
"x  c #702A35",
"c  c #772937",
"v  c #7C2C35",
"b  c #79263A",
"n  c #78253F",
"m  c #752A3F",
"M  c #762C3D",
"N  c #752E3C",
"B  c #763136",
"V  c #773634",
"C  c #74393D",
"Z  c #794223",
"A  c #612042",
"S  c #782245",
"D  c #732940",
"F  c #7A2A45",
"G  c #772555",
"H  c #82332C",
"J  c #832E33",
"K  c #873736",
"L  c #8D3F35",
"P  c #833038",
"I  c #84383A",
"U  c #863F3B",
"Y  c #8A3F3C",
"T  c #905229",
"R  c #8B4134",
"E  c #8E4139",
"W  c #954639",
"Q  c #93463C",
"!  c #94463C",
"~  c #95463F",
"^  c #96463F",
"/  c #9D433A",
"(  c #96523D",
")  c #883644",
"_  c #8B3840",
"`  c #883D41",
"'  c #8A3E40",
"]  c #893B49",
"[  c #8F3F4C",
"{  c #903E42",
"}  c #983E47",
"|  c #8F4544",
" . c #944445",
".. c #9C4241",
"X. c #984346",
"o. c #9A4644",
"O. c #9F4A43",
"+. c #95434F",
"@. c #9C424B",
"#. c #994749",
"$. c #9B464D",
"%. c #93484D",
"&. c #964A4E",
"*. c #9A4854",
"=. c #A35A49",
"-. c #BE564D",
";. c #9A466A",
":. c #E38C3D",
">. c #F88A33",
",. c #F3B627",
"<. c #FFBA32",
"1. c #F9B138",
"2. c #FFBF3A",
"3. c #E7C909",
"4. c #F6C11B",
"5. c #F1CE28",
"6. c #FFC828",
"7. c #FFD122",
"8. c #FADB29",
"9. c #FFDA2D",
"0. c #F4C336",
"q. c #FCC938",
"w. c #FFD23B",
"e. c #FBE223",
"r. c #D29252",
"t. c #FFBC4D",
"y. c #FBAF5B",
"u. c #FEAE59",
"i. c #F8BD57",
"p. c #FFB06A",
"a. c #F8B469",
"s. c #FCD85E",
"d. c #FFE74C",
"f. c #FFE764",
/* pixels */
"                                                                                            ",
"                                                                                            ",
"                                                                                            ",
"                                                                                            ",
"                                                                                            ",
"                                                                                            ",
"                                                                                            ",
"          y.y.y.y.y.y.y.y.y.y.y.y.y.y.y.y.y.y.y.y.y.y.y.y.y.y.y.y.y.y.                      ",
"      y.y.y.y.y.y.y.y.y.y.y.y.y.y.y.y.y.y.y.y.y.y.y.y.y.y.y.y.y.y.y.y.                      ",
"      y.y.k k y.y.y.@.@.@.@.@.@.@.@.@.@.@.@.@.@.@.@.@.@.@.@.@.@.y y >.                      ",
"    y.k k k k y.y.y.@.@.@.@.@.@.@.@.@.@.@.@.@.@.@.@.@.@.@.@.@.y y y >.                      ",
"    y.k k k k y.y.y.I I I I I I I I I I I I I I I I I I I I y y y y >.                      ",
"  y.y.k k k k y.s.s.k j j j j j j j j j k j j j j j j j j j y y y y q.                      ",
"  y.y.k k k k y.s.s.@.@.@.@.@.@.@.@.@.@.@.@.@.@.@.@.@.@.@.@.y y y y q.                      ",
"  y.y.k k k k y.s.s.@.@.@.@.@.@.@.@.@.@.2.w.8.2.@.@.@.@.@.@.y y y y q.                      ",
"  y.y.k k k k y.s.s.@.@.@.@.@.@.@.@.@.@.8.0.9.w.8.@.@.@.@.@.y y y y q.                      ",
"  y.y.k k k k y.s.s.j j j j j k j j j j k w.<.w.w.k j j j j t y y y q.                      ",
"  y.y.k k k k y.s.s.j j j j j t j j w.8.w.w.w.2.w.<.8.k j j I 8.w.w.q.                      ",
"    y.k k k k y.s.s.I I I I I I I I <.,.3.w.w.w.w.w.w.I I I @.w.4.<.q.                      ",
"    y.y.k k k y.s.s.@.@.@.@.@.@.@.<.8.w.w.;.w.w.2.w.@.@.@.@.@.w.8.w.q.                      ",
"      y.y.k k y.s.s.@.@.@.@.w.w.w.w.~ +.T w.2.w.<.w.8.8.w.2.8.w.w A 2.w.w.w.                ",
"      y.y.y.y.y.s.s.<.2.<.w.w.<.8.w.w.w.8.w.8.w.w.w.w.w.2.<.2.w.w.w.6.5.7.e.                ",
"          y.y.y.s.s.w.w.w.2.8.w.8.w.8.w.8.2.w.w.8.2.8.w.w.w.2.<.2.2.w.w.8.8.                ",
"                y.y.y.y.y.y.y.y.y.y.y.y.y.y.s.s.s.s.s.s.s.s.s.s.s.s.s.s.s.s.s.s.s.s.s.      ",
"                y.y.t t t t t t t t t t = y.s.s.C p & s.s.f f f f f f f s.s.D B o s.s.      ",
"                y.y.t t t t t t t t t t = y.s.s.C B & s.s.f t t t t t t s.s.G M $ s.s.      ",
"                y.y. . . . . . . . . . .K y.s.s. .~ Y s.s.../ ..........s.s.%.( Z s.s.      ",
"                y.y. . . . . . . . . . .K y.s.s. .~ Y s.s...............s.s.&.=.: s.s.      ",
"                y.y. . . . . . . . . . .K y.s.s. . .Y s.s.../ ..........s.s.*.Q - s.s.      ",
"                y.y.t t t t t t t t t t = y.s.s.t q 0 s.s.t J r.f., 6 t s.s.c 9 O s.s.      ",
"                y.y.t t t t t t t t t t = y.s.s.t q * s.s.t :.a.s i.t t s.s.N V . s.s.      ",
"                y.y.t t t t t t t t t t = y.s.s.t v @ s.s.p t.t.# p.i P s.s.N 7 X s.s.      ",
"                y.y.o.o.o.o.o.o.o.o.o.X.K y.s.s.o.#.W s.s.| -.1.e y.} O.s.s.$.Q ; s.s.      ",
"                y.y.o.o.o.o.o.o.o.o.o._ j y.s.s.o.' H s.s.E L ' ) E ] Y s.s.[ E % s.s.      ",
"                y.y.b b b b b b b b b _ > y.s.s.2 b > s.s.S 5 F j 1 k 4 s.s.M t + s.s.      ",
"            8.w.y.y.b b b b b b b b b < > y.s.s.2 < > s.s.2 u 8 x h d 3 s.s.S p + s.s.8.    ",
"            w.8.y.y.y.y.y.y.y.y.y.y.y.y.y.y.s.s.s.s.s.s.s.s.s.s.s.s.s.s.s.s.s.s.s.s.s.8.    ",
"          2.w.2.y.y.y.y.y.y.y.y.y.y.y.y.y.y.s.s.s.s.s.s.s.s.s.s.s.s.s.s.s.s.s.s.s.s.s.d.2.  ",
"                                                                                            ",
"                                                                                            ",
"                                                                                            ",
"                                                                                            ",
"                                                                                            ",
"                                                                                            ",
"                                                                                            ",
"                                                                                            "
};
