/* XPM */
static char *_721cbee4dcf4e74c1b4394993b43deehPASg7PKegPXfuNf[] = {
/* columns rows colors chars-per-pixel */
"46 46 145 2 ",
"   c None",
".  c #5B0A00",
"X  c #5D0D00",
"o  c #411100",
"O  c #641200",
"+  c #671601",
"@  c #6B1C0F",
"#  c #69161E",
"$  c #782D0D",
"%  c #652C11",
"&  c #6F2518",
"*  c #672A18",
"=  c #7B2D17",
"-  c #7C2E17",
";  c #7F311A",
":  c #7E3D1F",
">  c #661E22",
",  c #631C2A",
"<  c #761A33",
"1  c #6E232A",
"2  c #682A2B",
"3  c #6E2C2E",
"4  c #722722",
"5  c #712527",
"6  c #712822",
"7  c #712C27",
"8  c #752C26",
"9  c #7D2B20",
"0  c #782B25",
"q  c #72212A",
"w  c #7B232F",
"e  c #7D262F",
"r  c #752B2A",
"t  c #732B2E",
"y  c #712D2E",
"u  c #78282B",
"i  c #782F28",
"p  c #782E2B",
"a  c #792A2F",
"s  c #6F302B",
"d  c #76302E",
"f  c #78332C",
"g  c #682931",
"h  c #6F2B36",
"j  c #6F2D37",
"k  c #792735",
"l  c #732A31",
"z  c #722B31",
"x  c #762B32",
"c  c #702A35",
"v  c #732B36",
"b  c #772937",
"n  c #7C2C35",
"m  c #79263A",
"M  c #78253F",
"N  c #762C3D",
"B  c #752E3C",
"V  c #723031",
"C  c #763136",
"Z  c #773634",
"A  c #74393D",
"S  c #794223",
"D  c #782245",
"F  c #732940",
"G  c #7A2A45",
"H  c #832E33",
"J  c #873736",
"K  c #833038",
"L  c #84333A",
"P  c #84383A",
"I  c #883C3D",
"U  c #8A3F3C",
"Y  c #905229",
"T  c #9D4031",
"R  c #934338",
"E  c #954639",
"W  c #93463C",
"Q  c #94463C",
"!  c #95463F",
"~  c #96463F",
"^  c #9D433A",
"/  c #9B483A",
"(  c #96523D",
")  c #A64A3B",
"_  c #8B3840",
"`  c #953F46",
"'  c #993D42",
"]  c #983E47",
"[  c #9F3A4C",
"{  c #8F4544",
"}  c #944445",
"|  c #9C4241",
" . c #984346",
".. c #9A4644",
"X. c #9D4841",
"o. c #9F4A43",
"O. c #95434F",
"+. c #9C424B",
"@. c #994749",
"#. c #9B464D",
"$. c #95494B",
"%. c #93484D",
"&. c #964A4E",
"*. c #9E4251",
"=. c #9A4854",
"-. c #A2494F",
";. c #A35A49",
":. c #BE564D",
">. c #B0565F",
",. c #B76444",
"<. c #9A466A",
"1. c #C76854",
"2. c #CF8139",
"3. c #ED902A",
"4. c #E38C3D",
"5. c #E9973D",
"6. c #F3B627",
"7. c #F3A930",
"8. c #FFA43F",
"9. c #FFBA32",
"0. c #F9B138",
"q. c #FFBF3A",
"w. c #E7C909",
"e. c #F6C11B",
"r. c #F1CE28",
"t. c #FFC828",
"y. c #FFD122",
"u. c #FADB29",
"i. c #FFDA2D",
"p. c #F4C336",
"a. c #FCC938",
"s. c #FFD23B",
"d. c #FBE223",
"f. c #BF8253",
"g. c #D29252",
"h. c #F6A041",
"j. c #FFA848",
"k. c #F6B14A",
"l. c #FFBC4D",
"z. c #FBAF5B",
"x. c #FFB767",
"c. c #F8B469",
"v. c #FCD85E",
"b. c #FFE74C",
"n. c #FFE764",
/* pixels */
"                                                                                            ",
"                                                                                            ",
"                                                                                            ",
"                                                                                            ",
"                                                                                            ",
"                                                                                            ",
"                                                                                            ",
"            z.z.z.z.z.z.z.z.` ` ` ` L L L L L L L L 3.h.z.z.L L L L L L L L ` z.            ",
"          z.z.z.z.z.z.z.z.z.z.` I I I I I I I I I I I 3.h.z.z.I I I I I I I I ` z.          ",
"          z.z.} } } z z z z z.z.L I I I I I I I I I I I 3.h.z.z.I I I I I I I I `           ",
"        z.z.} } } z z z z } z.z.z.j.j.j.j.j.j.j.j.j.j.j.j.j.5.j.j.j.j.j.j.j.j.j.j.          ",
"        z.} } z z z z } } } z.j.j.j.+.+.+.+.+.+.+.+.+.+.+.+.8.+.+.+.>.y y y y ,.j.          ",
"        z.} z z z z } } } z.j.j.j.+.+.+.+.+.+.+.+.+.+.+.+.+.+.+.+.>.y y y y ,.,.j.          ",
"        z.z z z z } } } z.z.j.j.P P P P P P P P P P P P P P P P y y y y y ,.,.j.j.          ",
"        z.z z l } } } z.z.v.j.l l l z l l l l l l l l l z y y y y y y y ,.,.j.x.            ",
"        z.z l } } } z.z.v.v.z l l l l l l l l l l l l l l y y y y y y f.f.v.v.              ",
"        z.z } } } z.z.v.v.v.+.+.+.+.+.+.+.+.+.+.+.+.+.+.+.+.+.>.y y f.f.v.v.                ",
"        z.} } } z.z.v.v.v.+.+.+.+.q.s.s.u.q.+.+.+.+.+.+.+.+.>.t y f.f.v.v.                  ",
"        z.} } z.z.v.v.v.+.+.+.+.+.u.s.p.i.s.u.+.+.+.+.+.+.>.y y f.f.v.v.                    ",
"        z.z.z.v.v.v.l l l l z s.u.s.u.s.s.q.s.9.u.z l l z P u.s.q.v.                        ",
"        z.z.v.v.v.P P P P P P 9.6.w.s.s.s.s.s.s.s.P P P P +.s.e.u.a.v.v.                    ",
"        z.v.v.v.+.+.+.+.+.+.9.u.s.s.9.<.s.s.q.s.+.+.+.+.>.f.s.u.s.a.v.v.                    ",
"        z.v.v.+.+.+.+.s.a.9.s.} O.Y s.s.q.s.9.s.u.u.s.q.s.u.s.q s.q.s.s.s.u.                ",
"        z.v.9.q.s.9.s.s.9.a.s.s.s.u.s.s.u.s.s.s.s.s.q.9.q.q.s.s.s.t.r.y.d.s.                ",
"          v.s.s.q.s.q.u.s.s.s.u.s.u.u.q.s.a.u.a.u.s.s.s.s.q.9.q.u.s.s.u.u.s.                ",
"          z.z.z.z.z.z.z.z.z.z.z.z.z.z.z.v.v.v.v.v.v.v.v.v.v.v.v.v.v.v.v.v.v.v.v.v.v.        ",
"          z.z.z.z.z.z.z.z.z.z.z.z.z.z.z.v.v.v.v.v.v.v.v.v.v.v.v.v.v.v.v.v.v.v.v.v.v.        ",
"          z.t t t t t t t t t t z * z.z.v.v.A d % v.v.h h h h h h h h v.v.h F C o v.        ",
"          z.} } } } } } } } } } } J z.z.v.v.} ! I v.v.| | | | | | | | v.v.%.%.( S v.        ",
"          z.} } } } } } } } } } } J z.z.v.v.} ! R v.v.| | | | | | | | v.v.%.&.;.f v.        ",
"          z.} } } } } } } } } } } J z.z.v.v.} } I v.v.| | ^ | | | | ^ v.v.%.=.W ; v.        ",
"          z.t t t t t t t t t t t * z.z.v.v.r 8 9 v.v.t w H g.n.> 5 z v.v.j b 8 + v.        ",
"          z.t t t t t t t t t t t * z.z.v.v.t 0 & v.v.t k 4.c.f $ t t v.v.h N Z . v.        ",
"          z.t t t t t t t t t t t * z.z.v.v.t n @ v.v.p 1.l.l.# 7.f K v.v.h N 6 . v.        ",
"          z..................... .J z.z.v.v...@.E v.v.{ ) :.0.e T ] X.v.v.%.#.E ; v.        ",
"          z..................... .J z.z.v.v...@.I v.v.$.X.[ 2.k.' *./ v.v.%.-.R - v.        ",
"          z.m m m m m m m m m m _ , z.z.v.v.1 m , v.v.M a 6 G x v c 2 v.v.j N r + v.        ",
"    u.s.q.z.m m m m m m m m m m < , z.z.v.v.1 < , v.v.1 V u 7 v d g 2 v.v.j D r + v.q.u.    ",
"    s.u.q.z.z.z.z.z.z.z.z.z.z.z.z.z.z.z.v.v.v.v.v.v.v.v.v.v.v.v.v.v.v.v.v.v.v.v.v.v.b.u.    ",
"  q.s.q.s.z.z.z.z.z.z.z.z.z.z.z.z.z.z.z.v.v.v.v.v.v.v.v.v.v.v.v.v.v.v.v.v.v.v.v.v.v.u.b.a.  ",
"                                                                                            ",
"                                                                                            ",
"                                                                                            ",
"                                                                                            ",
"                                                                                            ",
"                                                                                            "
};
