/* XPM */
static char *e7e576876ce24ea5d2770785df2497e837TIoBIhZiVH90BQ[] = {
/* columns rows colors chars-per-pixel */
"46 46 147 2 ",
"   c None",
".  c #5B0A00",
"X  c #5D0D00",
"o  c #411100",
"O  c #641200",
"+  c #671601",
"@  c #6B1C0F",
"#  c #69161E",
"$  c #51200F",
"%  c #72220B",
"&  c #782D0D",
"*  c #652C11",
"=  c #6F2518",
"-  c #672A18",
";  c #7B2D17",
":  c #7C2E17",
">  c #7F311A",
",  c #661E22",
"<  c #631C2A",
"1  c #761A33",
"2  c #6E232A",
"3  c #682A2B",
"4  c #712527",
"5  c #712822",
"6  c #712C27",
"7  c #752C26",
"8  c #7D2B20",
"9  c #782B25",
"0  c #72212A",
"q  c #7B232F",
"w  c #7D262F",
"e  c #752B2A",
"r  c #732B2E",
"t  c #712D2E",
"y  c #78282B",
"u  c #782F28",
"i  c #782E2B",
"p  c #6F302B",
"a  c #76302E",
"s  c #78332C",
"d  c #682931",
"f  c #6F2B36",
"g  c #6F2D37",
"h  c #792735",
"j  c #732A31",
"k  c #772A32",
"l  c #772937",
"z  c #7C2C35",
"x  c #79263A",
"c  c #752A3F",
"v  c #752E3C",
"b  c #723031",
"n  c #763136",
"m  c #773634",
"M  c #74393D",
"N  c #794223",
"B  c #782245",
"V  c #732940",
"C  c #772555",
"Z  c #82332C",
"A  c #832E33",
"S  c #873736",
"D  c #8D3F35",
"F  c #833038",
"G  c #84333A",
"H  c #84383A",
"J  c #863F3B",
"K  c #8A3F3C",
"L  c #8D3F3F",
"P  c #905229",
"I  c #8E4139",
"U  c #9D4031",
"Y  c #934338",
"T  c #954639",
"R  c #93463C",
"E  c #94463C",
"W  c #95463F",
"Q  c #96463F",
"!  c #9D433A",
"~  c #9B483A",
"^  c #96523D",
"/  c #A64A3B",
"(  c #883644",
")  c #8B3840",
"_  c #883D41",
"`  c #8A3E40",
"'  c #8A3D43",
"]  c #893B49",
"[  c #8F3F4C",
"{  c #903E42",
"}  c #913D44",
"|  c #993D42",
" . c #983E47",
".. c #9F3A4C",
"X. c #8F4544",
"o. c #944445",
"O. c #9C4241",
"+. c #984346",
"@. c #9A4644",
"#. c #9D4841",
"$. c #9F4A43",
"%. c #95434F",
"&. c #9C424B",
"*. c #994749",
"=. c #9B464D",
"-. c #95494B",
";. c #93484D",
":. c #9E4251",
">. c #9A4854",
",. c #A2494F",
"<. c #BE564D",
"1. c #B44C56",
"2. c #B0565F",
"3. c #9A466A",
"4. c #C76854",
"5. c #CF8139",
"6. c #ED902A",
"7. c #E38C3D",
"8. c #F3B627",
"9. c #F3A930",
"0. c #FFBA32",
"q. c #F9B138",
"w. c #FFBF3A",
"e. c #E7C909",
"r. c #F6C11B",
"t. c #FADB29",
"y. c #FFDA2D",
"u. c #F4C336",
"i. c #FCC938",
"p. c #FFD23B",
"a. c #BF8253",
"s. c #D29252",
"d. c #F6A041",
"f. c #F6B14A",
"g. c #FFBC4D",
"h. c #F6AC5B",
"j. c #FBAF5B",
"k. c #CFB869",
"l. c #F8B469",
"z. c #FBB66A",
"x. c #FBB86E",
"c. c #FCD85E",
"v. c #FFE74C",
"b. c #F6C675",
"n. c #F6DA79",
"m. c #FFE764",
"M. c #FFDCA1",
/* pixels */
"                                                                                            ",
"                                                                                            ",
"                                                                                            ",
"                                                                                            ",
"                                                                                            ",
"                                                                                            ",
"                                                                                            ",
"                z.z.z.z.1.1.1.1.1.1.1.1.1.1.1.6.d.p.x.1.1.1.1.1.                            ",
"              z.z.z.z.z.z.z.G G G G G G G G } G 6.d.p.x.G G G G 1.1.1.M.                    ",
"            z.z.o.o.S S z.z.G } } } } } } } } S - 6.d.p.x.} G } } } G 1.b.                  ",
"          z.o.o.o.o.o.o.j - z.z.G j j j j j j j j j - 6.d.p.x.j j j j G G 1.p.              ",
"          z.o.o.o.o.j j j j z.z.z.o.o.o.o.o.o.o.o.o.o.S 6.d.p.x.o.o.o.o.o.o.S p.            ",
"        z.o.o.o.o.j j j j j S z.z.z.o.o.o.o.o.o.o.o.o.o.S 6.d.p.o.o.o.o.o.o.o.S p.          ",
"        z.o.o.o.j j j j j o.S S z.z.z.o.o.o.o.o.o.o.o.o.o.S 6.d.x.o.o.o.o.o.o.o.S           ",
"        z.o.j j j j j j o.o.o.z.z.z.h.h.h.h.h.h.h.h.h.h.h.h.h.h.h.h.h.h.h.h.h.h.h.p.        ",
"        z.j j j j j j o.o.o.z.z.h.h.h.h.h.h.h.h.h.h.h.h.h.h.h.h.h.h.h.h.h.h.h.h.h.h.        ",
"        z.j j j j o.o.o.o.z.h.h.h.h.h.&.&.&.&.&.&.&.&.&.&.&.&.&.&.&.&.&.2.t t t t h.        ",
"        z.j j o.o.o.z.z.n.n.h.&.&.t.p.u.y.p.t.&.&.&.&.&.&.&.&.&.&.&.2.t t t t k.a.          ",
"        z.o.o.o.o.z.z.n.n.n.j j j j w.p.0.p.p.j j j j j j t t t t t t t t t k.k.n.          ",
"        z.o.o.z.z.z.n.n.n.j r p.t.p.t.p.p.w.p.0.t.j j j j H t.p.w.c.t t t k.k.n.            ",
"        z.o.z.z.n.n.n.n.H H H 0.8.e.p.p.p.p.p.p.p.H H H H &.p.r.t.i.c.c.k.k.n.              ",
"        z.z.z.n.n.n.n.&.&.&.0.t.p.p.0.3.p.p.w.p.&.&.&.&.2.a.p.t.p.i.c.c.k.n.                ",
"        z.z.n.n.n.&.&.p.p.0.p.o.%.P p.p.w.p.0.p.t.t.p.w.p.t.p.0 p.w.p.p.p.t.                ",
"          n.n.p.w.i.i.t.p.p.p.t.p.t.t.w.p.p.t.w.t.p.p.p.p.w.0.w.t.p.p.t.t.p.                ",
"          j.j.j.j.j.j.j.j.j.j.j.j.j.j.j.c.c.c.c.c.c.c.c.c.c.c.c.c.c.c.c.c.c.c.c.c.c.        ",
"          j.j.j.j.j.j.j.j.j.j.j.j.j.j.j.c.c.c.c.c.c.c.c.c.c.c.c.c.c.c.c.c.c.c.c.c.c.        ",
"          j.j t r r r r r r r r t - j.j.c.c.M k * c.c.f f f f f f f f c.c.f V n o c.        ",
"          j.r r r r r r r r r r i - j.j.c.c.M i * c.c.f r r r r r r r c.c.f C c $ c.        ",
"          j.o.o.o.o.o.o.o.o.o.o.o.S j.j.c.c.o.Q K c.c.O.O.O.O.O.O.O.O.c.c.;.;.^ N c.        ",
"          j.o.o.o.o.o.o.o.o.o.o.o.S j.j.c.c.o.Q K c.c.O.O.! O.O.O.O.O.c.c.;.>.R : c.        ",
"          j.r r r r r r r r r r r - j.j.c.c.j 9 ; c.c.r q A s.m., 4 r c.c.f l 7 O c.        ",
"          j.r r r r r r r r r r r - j.j.c.c.r e = c.c.r h 7.z.s & r r c.c.f v m . c.        ",
"          j.r r r r r r r r r r r - j.j.c.c.r z @ c.c.i 4.g.g.# 9.Z A c.c.f v 5 X c.        ",
"          j.@.@.@.@.@.@.@.@.@.@.+.S j.j.c.c.@.*.T c.c.o./ <.q.h D O.,.c.c.;.=.Q > c.        ",
"          j.@.@.@.@.@.@.@.@.@.@.+.S j.j.c.c.@.*.K c.c.-.~ ..5.f.| :.U c.c.;.,.Y ; c.        ",
"          j.@.@.@.@.@.@.@.@.@.@.) j j.j.c.c.@.' Z c.c.K L I } ( _ ] I c.c.;.[ I % c.        ",
"    t.p.w.j.x x x x x x x x x x 1 < j.j.c.c.2 1 < c.c.2 b y 6 g p d 3 c.c.f B e + c.w.t.    ",
"    p.t.w.j.j.j.j.j.j.j.j.j.j.j.j.j.j.j.c.c.c.c.c.c.c.c.c.c.c.c.c.c.c.c.c.c.c.c.c.c.v.t.    ",
"  w.p.w.p.j.j.j.j.j.j.j.j.j.j.j.j.j.j.j.c.c.c.c.c.c.c.c.c.c.c.c.c.c.c.c.c.c.c.c.c.c.t.v.w.  ",
"                                                                                            ",
"                                                                                            ",
"                                                                                            ",
"                                                                                            ",
"                                                                                            ",
"                                                                                            ",
"                                                                                            "
};
