/* XPM */
static char *_d31a08eb61a4b3bb7466921d13ed900LRKGVdNOzRgTxiAy[] = {
/* columns rows colors chars-per-pixel */
"46 46 153 2 ",
"   c None",
".  c #5B0A00",
"X  c #5D0D00",
"o  c #411100",
"O  c #641200",
"+  c #671601",
"@  c #6B1C0F",
"#  c #69161E",
"$  c #6E151E",
"%  c #51200F",
"&  c #72220B",
"*  c #782D0D",
"=  c #652C11",
"-  c #6F2518",
";  c #672A18",
":  c #7B2D17",
">  c #7C2E17",
",  c #7F311A",
"<  c #7E3D1F",
"1  c #661E22",
"2  c #6E1F27",
"3  c #631C2A",
"4  c #761A33",
"5  c #6E232A",
"6  c #682A2B",
"7  c #6E282F",
"8  c #6E2C2E",
"9  c #722722",
"0  c #712527",
"q  c #712822",
"w  c #712C27",
"e  c #752C26",
"r  c #7D2B20",
"t  c #782B25",
"y  c #77212A",
"u  c #7B232F",
"i  c #7B252D",
"p  c #7D262F",
"a  c #752B2A",
"s  c #732B2E",
"d  c #78282B",
"f  c #782F28",
"g  c #782E2B",
"h  c #792A2F",
"j  c #6F302B",
"k  c #76302E",
"l  c #78332C",
"z  c #682931",
"x  c #6F2B36",
"c  c #6F2D37",
"v  c #792735",
"b  c #732A31",
"n  c #772A32",
"m  c #762B32",
"M  c #702A35",
"N  c #732B36",
"B  c #772937",
"V  c #7C2C35",
"C  c #79263A",
"Z  c #78253F",
"A  c #752A3F",
"S  c #762C3D",
"D  c #752E3C",
"F  c #723031",
"G  c #763136",
"H  c #773037",
"J  c #773634",
"K  c #74393D",
"L  c #794223",
"P  c #782245",
"I  c #732940",
"U  c #7A2A45",
"Y  c #772555",
"T  c #82332C",
"R  c #832E33",
"E  c #873736",
"W  c #8D3F35",
"Q  c #833038",
"!  c #84353D",
"~  c #88353D",
"^  c #863F3B",
"/  c #8A3F3C",
"(  c #8D3F3F",
")  c #A37D00",
"_  c #8E4139",
"`  c #9D4031",
"'  c #934338",
"]  c #954639",
"[  c #93463C",
"{  c #94463C",
"}  c #96463F",
"|  c #9D433A",
" . c #9B483A",
".. c #96523D",
"X. c #A64A3B",
"o. c #883644",
"O. c #8B3840",
"+. c #883D41",
"@. c #8A3E40",
"#. c #8A3D43",
"$. c #893B49",
"%. c #8F3F4C",
"&. c #953740",
"*. c #903E42",
"=. c #993D42",
"-. c #983E47",
";. c #9F3A4C",
":. c #8D4140",
">. c #8F4544",
",. c #8D4645",
"<. c #944445",
"1. c #9C4241",
"2. c #984346",
"3. c #9A4644",
"4. c #9D4841",
"5. c #9F4A43",
"6. c #994749",
"7. c #9B464D",
"8. c #95494B",
"9. c #93484D",
"0. c #964A4E",
"q. c #9E4251",
"w. c #9A4854",
"e. c #A7434D",
"r. c #A2494F",
"t. c #A35A49",
"y. c #BE564D",
"u. c #B4525C",
"i. c #C76854",
"p. c #CF8139",
"a. c #E38C3D",
"s. c #F3A930",
"d. c #F9B138",
"f. c #FFBF3A",
"g. c #FFC400",
"h. c #FBC923",
"j. c #FADB29",
"k. c #FFD23B",
"l. c #D29252",
"z. c #FBA546",
"x. c #F6B14A",
"c. c #FFBC4D",
"v. c #FBAF5B",
"b. c #FFB059",
"n. c #F8B469",
"m. c #F6CD41",
"M. c #FFD548",
"N. c #FBD34F",
"B. c #FCD85E",
"V. c #FFDA5E",
"C. c #FFE74C",
"Z. c #FFDD6B",
"A. c #FFE764",
/* pixels */
"                                                                                            ",
"                                                                                            ",
"                                                                                            ",
"                                                                                            ",
"                                                                                            ",
"                                                                                            ",
"                                                                                            ",
"                                                                                            ",
"                                                                                            ",
"                    b.b.b.b.N.N.~ ~ ~ ~ ~ ~ ~ k.N.Z.~ ~ ~ ~ ~ ~ ~ &.e.k.V.                  ",
"                  b.z.z.z.z.z.k.k.i b b b b 7 h.k.M.Z.b b b b b b b &.u.k.V.                ",
"                b.z.z.b b ; z.z.k.k.2 b b b b i h.k.M.Z.b b b b b b b &.e.k.V.              ",
"              b.z.z.<.<.<.:.z.z.z.k.k.<.<.<.<.:.E h.k.M.Z.<.<.<.<.<.<.<.,.:.k.V.            ",
"            b.z.z.<.<.<.<.<.E z.z.z.k.k.<.<.<.<.:.E h.k.M.Z.<.<.<.<.<.<.<.,.:.k.V.          ",
"          b.z.z.<.<.<.<.<.<.:.E z.z.z.k.k.<.<.<.<.:.E h.k.M.Z.<.<.<.<.<.<.<.,.:.k.          ",
"          b.z.<.<.<.<.<.<.<.<.:.E z.z.z.k.k.<.<.<.<.:.E h.k.M.Z.<.<.<.<.<.<.<.,.:.V.        ",
"          z.b b b b b b b b b b b ; z.z.k.k.2 b b b b y $ h.k.M.b b b b b b b G ! B.        ",
"          z.b b b b b b b b b b b ; z.z.k.k.2 b b b b b y $ h.k.b b b b b b n H ! B.        ",
"          z.b b b b b b b b b b b ; z.z.k.k.2 b b b b b y $ h.k.b b b b b b b G ! V.        ",
"          z.<.<.<.<.<.<.<.<.<.<.:.E z.z.k.k.<.<.<.<.<.<.:.E h.k.<.<.<.<.<.<.<.:.E V.        ",
"          z.<.<.<.<.<.<.<.<.<.<.:.E z.z.k.k.<.<.<.<.<.<.:.E h.k.<.<.<.<.<.<.<.:.E V.        ",
"          z.<.<.<.<.<.<.<.<.<.<.:.E z.z.k.k.<.<.<.<.<.<.:.E g.k.<.<.<.<.<.<.<.:.E V.        ",
"          z.z.z.z.z.z.z.z.z.z.z.z.z.z.z.m.m.m.m.m.m.m.m.m.m.m.g.m.m.m.m.m.m.m.m.m.m.        ",
"          v.v.v.v.v.v.v.v.v.v.v.v.v.v.v.B.B.B.B.B.B.B.B.B.B.B.) B.B.B.B.B.B.B.B.B.B.        ",
"          v.s s s s s s s s s s s ; v.v.B.B.K k = B.B.x x x x x x x x B.B.x I G o B.        ",
"          v.s s s s s s s s s s s ; v.v.B.B.K k = B.B.x s s s s s s s B.B.x Y I % B.        ",
"          v.<.<.<.<.<.<.<.<.<.<.<.E v.v.B.B.<.} / B.B.1.1.1.1.1.1.1.1.B.B.9.9...L B.        ",
"          v.<.<.<.<.<.<.<.<.<.<.<.E v.v.B.B.<.} / B.B.1.1.1.1.1.1.1.1.B.B.9.0.t.< B.        ",
"          v.<.<.<.<.<.<.<.<.<.<.<.E v.v.B.B.<.} / B.B.1.1.| 1.1.1.1.1.B.B.9.w.[ > B.        ",
"          v.s s s s s s s s s s s ; v.v.B.B.s t r B.B.s u R l.A.1 9 b B.B.x B e O B.        ",
"          v.s s s s s s s s s s s ; v.v.B.B.s t - B.B.s v a.n.l * s s B.B.x D J . B.        ",
"          v.s s s s s s s s s s s ; v.v.B.B.s V @ B.B.g i.c.c.# s.f Q B.B.x S q X B.        ",
"          v.3.3.3.3.3.3.3.3.3.3.2.E v.v.B.B.3.6.] B.B.>.X.y.d.p ` -.r.B.B.9.7.} , B.        ",
"          v.3.3.3.3.3.3.3.3.3.3.2.E v.v.B.B.3.6./ B.B.8.4.;.p.x.=.q. .B.B.9.r.' : B.        ",
"          v.3.3.3.3.3.3.3.3.3.3.O.n v.v.B.B.3.+.T B.B.+.( W :.o.+.#._ B.B.9.%._ & B.        ",
"          v.C C C C C C C C C C O.3 v.v.B.B.5 C 3 B.B.Z n 9 U m N x 6 B.B.x S a + B.        ",
"    j.k.f.v.C C C C C C C C C C 4 3 v.v.B.B.5 4 3 B.B.5 F d w N 8 6 6 B.B.x P a + B.f.j.    ",
"    k.j.f.v.v.v.v.v.v.v.v.v.v.v.v.v.v.v.B.B.B.B.B.B.B.B.B.B.B.B.B.Z.B.B.B.B.B.B.B.B.C.j.    ",
"  f.k.f.k.v.v.v.v.v.v.v.v.v.v.v.v.v.v.v.B.B.B.B.B.B.B.B.B.B.B.B.B.B.B.B.B.B.B.B.B.B.j.C.f.  ",
"                                                                                            ",
"                                                                                            ",
"                                                                                            ",
"                                                                                            ",
"                                                                                            ",
"                                                                                            ",
"                                                                                            "
};
