/* XPM */
static char *_8fe66e80176478580fb627b2aaf7b69zh5xicTxSNk8USp2[] = {
/* columns rows colors chars-per-pixel */
"46 46 119 2 ",
"   c None",
".  c #6E5967",
"X  c #725A69",
"o  c #765B6A",
"O  c #755C69",
"+  c #7B5E6B",
"@  c #7C5E6B",
"#  c #7A5D6C",
"$  c #7D5E6C",
"%  c #7E5E6D",
"&  c #6A606F",
"*  c #77606C",
"=  c #7C626D",
"-  c #7F626D",
";  c #666776",
":  c #6F6371",
">  c #6B6574",
",  c #6F6977",
"<  c #636E7E",
"1  c #6D6978",
"2  c #786573",
"3  c #7D6976",
"4  c #746E7B",
"5  c #76717D",
"6  c #805F6D",
"7  c #83616E",
"8  c #8F616F",
"9  c #88646F",
"0  c #866070",
"q  c #816670",
"w  c #856570",
"e  c #8A6370",
"r  c #8C6372",
"t  c #876971",
"y  c #886972",
"u  c #896A73",
"i  c #8A6A72",
"p  c #8F6A72",
"a  c #8A6D75",
"s  c #816E7A",
"d  c #926673",
"f  c #956972",
"g  c #926F75",
"h  c #986874",
"j  c #977076",
"k  c #987279",
"l  c #9D7079",
"z  c #9A777A",
"x  c #96797B",
"c  c #9B7B7C",
"v  c #9D7F7F",
"b  c #A16B78",
"n  c #A46C79",
"m  c #A76D7A",
"M  c #AA6F7A",
"N  c #B46F79",
"B  c #A6777E",
"V  c #AD707B",
"C  c #A2787E",
"Z  c #A47C7F",
"A  c #A97A7D",
"S  c #B57B7E",
"D  c #BB797E",
"F  c #677181",
"G  c #6C7583",
"H  c #6C7785",
"J  c #717886",
"K  c #757E8A",
"L  c #757F8B",
"P  c #B47C82",
"I  c #C87E81",
"U  c #7A838E",
"Y  c #6B8492",
"T  c #7E8892",
"R  c #79909C",
"E  c #7F98A2",
"W  c #9D8282",
"Q  c #9D8686",
"!  c #9D8A8A",
"~  c #A78082",
"^  c #AE8080",
"/  c #B28183",
"(  c #B58587",
")  c #B98080",
"_  c #B98487",
"`  c #BE8C8B",
"'  c #829BA4",
"]  c #849DA6",
"[  c #C38D88",
"{  c #C08D8B",
"}  c #D58485",
"|  c #DD8185",
" . c #C1908C",
".. c #C1908E",
"X. c #C2928E",
"o. c #C6958D",
"O. c #C39490",
"+. c #E28989",
"@. c #E6938E",
"#. c #E79690",
"$. c #CCA496",
"%. c #D5A195",
"&. c #DAAD9C",
"*. c #DCB19E",
"=. c #ECA598",
"-. c #F2B3A0",
";. c #F2B3A1",
":. c #F3B4A2",
">. c #F5BAA5",
",. c #F6BEA7",
"<. c #D9C3B2",
"1. c #F8C2A9",
"2. c #FBCAAE",
"3. c #FBD1B5",
"4. c #F7D1B8",
"5. c #F6D4BD",
"6. c #FBD5B9",
"7. c #FBD9BD",
"8. c #FAE0C4",
/* pixels */
"                      x z . z v v Q v ! Q z = z v v Q v ! ! W z . z x                       ",
"                  t z *.>.. >.2.2.7.2.8.7.>.z >.2.2.7.2.8.8.3.>.. >.*.z t                   ",
"                [ <.4.2.2.. 2.2.2.2.2.2.2.2.v 2.2.2.2.2.2.2.2.2.. 2.2.4.<.[                 ",
"              ^ 5.6.3.2.>.. >.2.2.2.2.2.2.>.z >.2.2.2.2.2.2.2.>.. >.2.3.6.5.^               ",
"            [ 5.2.2.,.@.+.. +.+.+.+.+.+.+.+.f +.+.+.+.+.+.+.+.+.. +.@.1.2.2.5.[             ",
"          t &.2.2.:.#.I N . % 7 7 7 7 7 7 X . & . o 7 7 7 7 7 @ . N I @.;.2.2.&.t           ",
"          z 1.2.2.@.} 9 . # b V V V V V n % . < . r n V V V V b # . 9 } #.2.2.1.z           ",
"        g %.2.2.-.I 9 . . # 7 7 7 7 7 7 7 O . < . @ 7 7 7 7 7 7 # . . 9 I ;.2.2.%.g         ",
"        c 1.2.2.@.D . % d h h h h h h h d O . < . . . . . . . . . . . . D @.2.2.1.c         ",
"        v 2.2.2.+.. # n V ) O.O.O.O.O.[ S 7 . J . h S O.O.O.O.O.O.S n # . +.2.2.2.v         ",
"        i o.$.o.D . @ h h ~ ~ ~ ~ ~ ~ ~ C % . G . e C ~ ~ ~ ~ ~ ~ C h @ . D o.$.o.i         ",
"        i o.$.o.D . . . e ~ ~ ~ ~ ~ ~ ~ ~ l # H @ C ~ ~ ~ ~ ~ ~ ~ e . . . D o.$.o.i         ",
"        c 1.2.1.+.& F F 2 O.O.O.O.O.O.O.O.` t F i ..O.O.O.O.O.O.O.2 F F & +.1.2.1.c         ",
"        ! 8.2.2.+., R R , O.O.O.O.O.O.O.O.O.a J a O.O.O.O.O.O.O.O., R R , +.2.2.8.!         ",
"        Q 7.2.2.+.O w a B O.O.O.O.O.O.O.O.` q L t { O.O.O.O.O.O.O.B a w O +.2.2.7.Q         ",
"        W 3.2.2.+.@ l ~ ~ ~ ~ ~ ~ ~ ~ ~ ~ l # T O P ~ ~ ~ ~ ~ ~ ~ ~ ~ l @ +.2.2.3.W         ",
"        W 3.2.2.+.. . . . . . . . . . . . . . T @ C ~ ~ ~ ~ ~ ~ ~ ~ ~ l = +.2.2.3.W         ",
"        v 2.2.2.+.o r h h h h h h h h h h r o K i ..O.O.O.O.O.O.O.O.O.` i +.2.2.2.v         ",
"        v 2.2.2.+.0 V V V V V V V V V V V V 7 T a X.O.O.O.O.O.O.O.O.O.O.a +.2.2.2.v         ",
"        i o.$.o.D O u h h h h k h h h h h e o J # C ~ ~ ~ ~ ~ ~ ~ ~ ~ l # D o.$.o.i         ",
"        = z W z f O w a a a a a a a s x a q O G O i a a a a a a a a a w O f z v z -         ",
"        c 1.2.1.+.t ` O.O.O.O.O.O.O.` ` O.` t < t ..O.O.O.O.O.O.O.O.O.` t +.1.2.1.c         ",
"        Q 7.2.2.+.a O.O.O.O.` ` O.O.O.` ` z * & * B ` ..O.O.O.O.O.O.O.O.a +.2.2.7.Q         ",
"        Q 7.2.2.+.% l ~ ~ ~ ~ P ~ ~ ~ P a U ] 5 ' 5 g ~ ~ ~ ~ ~ ~ ~ ~ l # +.2.2.7.Q         ",
"        W 3.2.2.+.. . . . . X . . . . X . J E , R 5 % a a a a a a a a w O +.2.2.3.W         ",
"        W 3.2.2.+.. o d h d h h h h h d % J E , R 5 C O.X.O.O.O.O.O.O.` i +.2.2.3.W         ",
"        v 2.2.2.+.. - V V V V V M V V M d J E , R 5 ~ O.O.O.O.O.O.O.O...a +.2.2.2.v         ",
"        v 2.2.2.+.. # b V V V V V V V n 6 J E , R 5 h O.O.O.O.O.O.O.O.P 7 +.2.2.2.v         ",
"        i o.$.o.D o 9 a a a a a a a a i = J E , R 5 . . . . . . . . . . . D o.$.o.i         ",
"        - z c z f w _ O.O.O.O.O.O.O.O.` l H E , R 5 O 7 7 7 7 7 7 7 7 X . f z v z -         ",
"        c 1.2.1.+.a O.O.O.O.O.O.O.O.O.O.P H E 4 R 5 d V V V V V V V V % . +.1.2.1.c         ",
"        ! 7.2.2.+.w _ O.O.O.O.O.O.O.O.` l H E 1 R 5 r V V V V V V V n % . +.2.2.7.Q         ",
"        ! 8.2.2.} . . . . . . . . . . . . J E , R 5 . . . . . . . . . . . +.2.2.8.!         ",
"        W 4.2.2.+.= j ~ ( o.O.X.O.O.O...A , K ; H 3 A O.O.O.O.O.O.( ~ ~ q +.2.2.3.Q         ",
"        W 4.2.2.+.& U K 3 O.O.O.O.O.O.O...A - < - / O.O.O.O.O.O.O.3 K K > +.2.2.3.W         ",
"        P 2.2.2.+.> Y Y > O.O.O.O.O.O.O.o...i H a ..O.O.O.O.O.O.O.> Y Y 1 } 2.2.2.v         ",
"        v 2.2.2.+.. . . h O.O.O.O.O.O.O.O.P 7 H a O.O.O.O.O.O.O.O.h . . . +.2.2.2.v         ",
"        i o.$.o.D X - 7 7 7 7 7 7 7 7 7 7 X . G O t a a a a a a a a a w O D ` $.o.a         ",
"        - z c c f @ b V V V V V V V V V n % . F w ` O.O.O.O.O.O.O.O.O._ w f z P z =         ",
"        c 1.2.1.+.% b V V V V V V V V V n % . F a O.O.O.O.O.O.O.O.O.O.O.a +.1.2.1.c         ",
"        Q 7.2.2.+.X % 7 7 7 7 7 0 q 0 7 - X . H w ` O.X.O.O.O.O.O.O.X._ 9 +.2.2.7.Q         ",
"        ! 8.2.2.+.. . . . . . . . . . . . . . < . . . . . . . . . . . . . +.2.2.8.!         ",
"        c 1.2.1.+.w _ O.O.O...O.O.O.O.O.O._ q < . % 7 7 7 7 7 7 7 7 7 X . +.1.2.1.c         ",
"        j =.:.=.| t ` O.O.O.O.O.O.O.O.O.O.` r < . d V V V V V V V V M - . | =.:.=.j         ",
"        @ f f f r O w a a a a a a a a a a q O . . O - 7 7 7 7 7 7 7 7 X . 8 f f f =         ",
"        . . . . . . . . . . . . . . . . . . . . . . . . . . . . . . . . . . . . . .         "
};
