/* XPM */
static char *_6185de9f93440db8cffa4d73906cd40zN4h4bEBkhhZxjKZ[] = {
/* columns rows colors chars-per-pixel */
"46 46 149 2 ",
"   c None",
".  c #000000",
"X  c #0B0601",
"o  c #0A0A0A",
"O  c #140A04",
"+  c #190E05",
"@  c #1F1107",
"#  c #14110F",
"$  c #1C130B",
"%  c #151313",
"&  c #181717",
"*  c #1D1C1C",
"=  c #380909",
"-  c #25150B",
";  c #2B170B",
":  c #2D1A0C",
">  c #321C0D",
",  c #311F13",
"<  c #391E12",
"1  c #3A210F",
"2  c #27231F",
"3  c #362012",
"4  c #3D2313",
"5  c #34251A",
"6  c #262524",
"7  c #2E2D2C",
"8  c #2D3331",
"9  c #313734",
"0  c #363B3A",
"q  c #383E3C",
"w  c #432513",
"e  c #492717",
"r  c #452913",
"t  c #4B2C15",
"y  c #4C2B19",
"u  c #543317",
"i  c #543119",
"p  c #5A361A",
"a  c #613B1A",
"s  c #633421",
"d  c #6C3724",
"f  c #6B3922",
"g  c #723B25",
"h  c #793D29",
"j  c #3C413F",
"k  c #70441B",
"l  c #78491F",
"z  c #734522",
"x  c #7A4127",
"c  c #774822",
"v  c #7B4A23",
"b  c #7E412A",
"n  c #3E4442",
"m  c #414542",
"M  c #444945",
"N  c #464A48",
"B  c #484D48",
"V  c #4D524D",
"C  c #52504A",
"Z  c #555A54",
"A  c #585E5A",
"S  c #5B605B",
"D  c #62655F",
"F  c #626761",
"G  c #656962",
"H  c #696D65",
"J  c #6E736A",
"K  c #73766B",
"L  c #75796E",
"P  c #787B6F",
"I  c #747770",
"U  c #767C72",
"Y  c #7B7E73",
"T  c #85452C",
"R  c #824C2B",
"E  c #8A4C2B",
"W  c #895225",
"Q  c #8D552C",
"!  c #8E5828",
"~  c #93542E",
"^  c #91592C",
"/  c #98592F",
"(  c #944F32",
")  c #8C5730",
"_  c #955032",
"`  c #965A32",
"'  c #9B5B34",
"]  c #A25E37",
"[  c #A55F38",
"{  c #9F6137",
"}  c #A66337",
"|  c #A26139",
" . c #AD653A",
".. c #AF693B",
"X. c #B36C3C",
"o. c #B86F3E",
"O. c #B7703D",
"+. c #BA713E",
"@. c #B86C40",
"#. c #BD7141",
"$. c #C47544",
"%. c #C57A44",
"&. c #7D8076",
"*. c #7D8279",
"=. c #818477",
"-. c #808276",
";. c #808379",
":. c #80847A",
">. c #81847A",
",. c #818479",
"<. c #80877D",
"1. c #83867C",
"2. c #84867C",
"3. c #81847A",
"4. c #81887F",
"5. c #85887C",
"6. c #85887F",
"7. c #888B7F",
"8. c #CA8045",
"9. c #D48947",
"0. c #D68A49",
"q. c #D6964C",
"w. c #D7924B",
"e. c #D8954E",
"r. c #D8914D",
"t. c #DE9D4F",
"y. c #DC9B4E",
"u. c #DE9A50",
"i. c #DF9A51",
"p. c #E09A50",
"a. c #E09A50",
"s. c #858A80",
"d. c #848A81",
"f. c #878A81",
"g. c #878D83",
"h. c #868D84",
"j. c #878E85",
"k. c #878A81",
"l. c #888E85",
"z. c #898F85",
"x. c #8B9086",
"c. c #8F948B",
"v. c #8F958C",
"b. c #8D918A",
"n. c #90968B",
"m. c #939A90",
"M. c #959C92",
"N. c #9BA298",
"B. c #A9AEA5",
/* pixels */
"                                      S A A A A A A A                                       ",
"                                    c.x.=.5.1.;.Y U U 1.                                    ",
"                                    x.L &.P &.6.I G J S                                     ",
"                                    S U P &.U <.U H J M                                     ",
"                                    N &.L &.H *.J J U n                                     ",
"                  V           n c.g.n S L H F &.*.&.F n m.M.Z N       G M                   ",
"                j.&.H     b.I J H J n n P K U J U &.B J I I K Y G   G 6.v.M                 ",
"            V z.L J *.4.V *.U &.*.U G j &.&.&.&.Y J N h.U U J J H 6.n.l.1.Y M               ",
"          j g.K U *.U >.*.Z U J J J N j S A A S S S M d.U U I U V 4.j.j.4.4.d.F             ",
"            J Y U U L J *.n &.H J < @ - X X . . . . . . J U U P j.| 4.*.4.j.I n             ",
"              j g.&.K Y &.&.y 3 r 4 : > O X . . . . . . . . . B 7.,.-.7.<.J                 ",
"            S s.N J L U U y R u t 4 : > X X . . . . . . . . . . n J K k.A v.A               ",
"          j 7.U c.V U M i ' ` p t w > 1 X X . . . . . . . . . . . N V j n.P 2.K             ",
"        N g.U L 6.U n ) v | { p y r : 3 X X . . . . . . . . . . . . . U P >.-.;.N           ",
"        j J K U U e R q.v ..{ p u t 3 1 O X . . . . . . . . . . . . . . P ;.K ;.m N         ",
"        s.>.C J U R ..e.Q @.' p i r : : O X . . . . . . . . . . . . . . . J V A K A         ",
"      6.H Y L 2.e ..o.u.! o.` p i t > > O . . . . . . . . . . . . . . . . A K J J P         ",
"      K K J J K t X.$.t.! +.~ u t r ; > O X . . . . . . . . . . . . . . . A J U J P         ",
"      K K J J K p #.$.t.! +.` u t w ; > O . . . . . . . . . . . . . . . . A J J K Y         ",
"      B j q j N a O.] t.v o.| p i t 4 5 2 $ . . . . . . . . . . . . . . . . j j j j j       ",
"j G J H K L J n a | ..q.! +.] p i y , 6 * - . . . . . . . . . . . . . . . . J Y P Y Y I Y j ",
"j K U L H H K q a ..X.i.! o.' p i e $ * 6 $ . . . . . . . . . . . . . . . . b.I Y 2.Y I Y j ",
"n J U >.k.&.U j p X.#.i.! X.^ u t w 2 6 # $ . . . . . . . . . . . . . . . . N.H Y Y Y Y Y j ",
"q J U Y Y Y L n a O.%.i.! ..` u t w 7 & * O . . . . . . . . . . . . . . . . N.Y Y Y Y I K q ",
"m G G D G K H q a +.%.a.! ..^ t t w 6 6 # + . . . . . . . . . . . . . . . . b.P K H H G S j ",
"m q j j q j j j a +.%.0.l X.} u w 4 % # ; + . . . . . . . . . . . . . . . . j j q j q j j j ",
"      k.v.h.| n a +.$.w.l X.~ t < w - , ; + . . . . . . . . . . . . . . . . b.&.L H j       ",
"      >.b.j.4.n a X.%.r.l X./ t w 4 3 3 - + . . . . . . . . . . . . . . . . N.>.K K j       ",
"      H 4.*.U n a +.$.9.c o./ t w 4 4 , - + . . . . . . . . . . . . . . . . M.J J I j       ",
"      H U 4.J n a X.+.a.! #.} p t w : > O . . . . . . . . . . . . . . . . . k.J F H n       ",
"      I J H G n a +.%.9.c O.! i e w ; > O X . . . . . . . . . . . . . . . . K J A D q       ",
"      S S A N j a O.$.t.v ..^ r e w : < O . . . . . . . . . . . . . . . . . D A A A m       ",
"n b.N.B.B.M.N.j a ..o.a.! ] ~ u w w > > O . . . . . . . . . . . . . . . . . b.N.N.N.4.4.U q ",
"q U U Y Y Y J j a o.%.0.v ~ T t 4 w < > O . . . . . . . . . . . . . . . . . b.D H K 4.4.*.n ",
"q J U :.P K H j a ..X.w.v W W t w 4 > : X . . . . . . . . . . . . . . . . . N.L H K k.*.4.n ",
"q Y U Y L K K j a ../ w.k E R w < > > : . . . . . . . . . . . . . . . . . . N.Y ,.-.| U *.n ",
"n Y U Y Y J H j a / ' %.t b T r < > : . . . . . . . . . . . . . . . . . . . b.U Y Y <.H U n ",
"q L Y K H D S j a W W %.t a k w < , . . . . . . . . . . . . . . . . . . . . K U 1.I Y I J n ",
"q N N 9 B N N j a E E [ w s f r . . . . . X X o o o o o o o . o X o o o o . n q q N N 0 8 n ",
"      K K Y Y q a E h ] w d a . . o o o o o o o o o o X o X o . o . . o o o s.U J I n       ",
"      J U U | j a g T ( < s o o o o o o o o o o o                           N.J U U q       ",
"      *.U I 4.j a a h ( s o o o o o o o                                     6.J J I n       ",
"      *.J J H j a g g # o o o                                               U J Y *.n       ",
"      F F F D j a a o o o o                                                 J L Y 1.j       ",
"      9 0 9 9 9 & % % = o                                                   8 9 0 j n       ",
"                                                                                            "
};
