/* XPM */
static char *a513c8cd18bd4090901a871e349876e9xhSZxPTQcm12oGx4[] = {
/* columns rows colors chars-per-pixel */
"46 46 186 2 ",
"   c None",
".  c #392618",
"X  c #3F382F",
"o  c #3C342A",
"O  c #3B3E3C",
"+  c #422C1A",
"@  c #4B2915",
"#  c #532E1B",
"$  c #502C16",
"%  c #5C321C",
"&  c #523016",
"*  c #63341F",
"=  c #633A1B",
"-  c #693C1F",
";  c #4C3A2E",
":  c #563B29",
">  c #5D3F2A",
",  c #453C31",
"<  c #493E32",
"1  c #663520",
"2  c #6A3622",
"3  c #6D3923",
"4  c #663E20",
"5  c #743C25",
"6  c #783F26",
"7  c #773D28",
"8  c #7A3E29",
"9  c #3D413F",
"0  c #72431E",
"q  c #4B4135",
"w  c #42413F",
"e  c #4D443A",
"r  c #534536",
"t  c #5B4234",
"y  c #5A4A38",
"u  c #51463D",
"i  c #68432E",
"p  c #744423",
"a  c #7B4327",
"s  c #7A4A23",
"d  c #71452A",
"f  c #7D412A",
"g  c #74492E",
"h  c #7D4B29",
"j  c #7E5126",
"k  c #664531",
"l  c #6B513E",
"z  c #3D4341",
"x  c #404543",
"c  c #454946",
"v  c #474B48",
"b  c #4A4E4A",
"n  c #524E46",
"m  c #4D524E",
"M  c #54544E",
"N  c #58544A",
"B  c #4F5550",
"V  c #525651",
"C  c #555A55",
"Z  c #595C55",
"A  c #5A5E5A",
"S  c #665547",
"D  c #755340",
"F  c #5C615B",
"G  c #62655E",
"H  c #686459",
"J  c #5F6460",
"K  c #636661",
"L  c #656A63",
"P  c #6A6D65",
"I  c #6B6E69",
"U  c #6D7167",
"Y  c #6D726A",
"T  c #72766C",
"R  c #75796E",
"E  c #797B6F",
"W  c #727770",
"Q  c #767A71",
"!  c #7A7D73",
"~  c #7A7A79",
"^  c #83432B",
"/  c #89472D",
"(  c #844C2C",
")  c #8B4A2D",
"_  c #904D2E",
"`  c #815127",
"'  c #855429",
"]  c #8B542E",
"[  c #8C5A2B",
"{  c #955C2C",
"}  c #985C2E",
"|  c #94562E",
" . c #8D4A31",
".. c #8C4731",
"X. c #964E32",
"o. c #9A4D38",
"O. c #8F5133",
"+. c #865B3F",
"@. c #945331",
"#. c #9B5333",
"$. c #955A32",
"%. c #9B5C34",
"&. c #A05535",
"*. c #A55B36",
"=. c #A3543B",
"-. c #A45B39",
";. c #AA5D39",
":. c #92602F",
">. c #9B6332",
",. c #9D6932",
"<. c #A36335",
"1. c #A36A34",
"2. c #A96D35",
"3. c #A4623A",
"4. c #AD633B",
"5. c #AD693A",
"6. c #AE6737",
"7. c #B4653D",
"8. c #B56B3D",
"9. c #B96B3F",
"0. c #AE7237",
"q. c #AE7239",
"w. c #B17539",
"e. c #BC713F",
"r. c #B67A3C",
"t. c #AC5940",
"y. c #B05D40",
"u. c #8E6142",
"i. c #B66C41",
"p. c #BC6D42",
"a. c #B06341",
"s. c #BD7242",
"d. c #AC7E63",
"f. c #C16E44",
"g. c #C37544",
"h. c #C67A45",
"j. c #CA7D47",
"k. c #CA7D49",
"l. c #CD7E48",
"z. c #C67448",
"x. c #D17F4B",
"c. c #7D8176",
"v. c #7D8176",
"b. c #7F8378",
"n. c #7D8279",
"m. c #7E8279",
"M. c #808276",
"N. c #808379",
"B. c #81847A",
"V. c #82857A",
"C. c #82867D",
"Z. c #82867C",
"A. c #86897E",
"S. c #84887F",
"D. c #98897E",
"F. c #C48542",
"G. c #CC8047",
"H. c #C98944",
"J. c #CE8149",
"K. c #C48944",
"L. c #D2844B",
"P. c #D6894D",
"I. c #D98C4E",
"U. c #CE9046",
"Y. c #DC924E",
"T. c #D68450",
"R. c #DC8B51",
"E. c #DE9251",
"W. c #E0974F",
"Q. c #E0984F",
"!. c #E08E54",
"~. c #E39455",
"^. c #E59855",
"/. c #E69658",
"(. c #E79958",
"). c #E89859",
"_. c #868A81",
"`. c #898D83",
"'. c #868380",
"]. c #8B9187",
"[. c #8E938B",
"{. c #90968C",
"}. c #929291",
"|. c #A4A4A3",
" X c #B7B7B7",
".X c #C3C3C3",
/* pixels */
"                                      K Y Y Y Y W Y Y Y L                                   ",
"                                    z ].N.B.C.b.b.~ W Y Q m                                 ",
"                                    z c.! ! ! c.b.Y P Y L                                   ",
"                                      P ! ! ! ! b.Y I P C                                   ",
"                                      Z W ! c.T c.T Y Y m B                                 ",
"                  C L           Q Y L m U Q T Y ! Q ! Y B c.W ! I         P                 ",
"                Z c.W Z   C Q n.! W Y z F Q Y Q T Q Q P J _.W Y b.W m   b.`.U               ",
"              T c.! Q Y C S.c.Q b.Q W C P b.b.B.b.! W L W Q Q Y U Q C B.`.A.N.T             ",
"            U c.W c.Q Q Q C W Q W Y Y m B J L L L L J V W Y E R Q A I A.A.A.C.M.W           ",
"            m U Y W Q Q ! P Z W P S # h h =.%.h a.-.O.O.i t H P U F A.B.M.c.C.B.Z           ",
"              c L Q Q T ! T b # ' &.%.-.-.a.a.+.z.a.a.a.4.4.%.3 < Q C.b.B.C.T C             ",
"            C b.P G T U P ; d ( a.5.3.a.s.i.s.:.T.k.k.s.p.p.i.] -.: M Y Q F K N.F           ",
"            Q b.Q F A F t s $.] s.i.s.g.F.h.k.,.E.T.L.G.k.k.z.$.s.$.k n C U b.C.T V         ",
"          I ! Q c.Q b ; O.3.5.$.k.h.h.J.L.L.L.i./.I.P.L.J.P.T.>.J.i.a.g N c.B.C.b.T         ",
"        C F U R c.T : ] 4.w.s.>.P.L.J.P.P.P.P.w.).E.P.P.L.P.P.a.I.h.s.8.g H c.c.R G B       ",
"        c.Y A P T N d 3.i.s.G.2.I.L.J.Y.I.I.I.i.).I.P.L.P.L.I.q.E.G.G.s.3.k P L F L K       ",
"      R T R ! ! M g >.5.j.G.G.2.E.P.P.Y.P.P.P.w.(.P.P.H.L.L.P.2.I.J.G.h.i.$.e P ! R T F     ",
"      P R T R Y S ] 8.s.G.J.J.w.E.P.R.I.L.P.L.w.^.L.P.J.L.L.P.0.Y.G.G.h.s.i.l P R T R T     ",
"      G E Y T U S 6.e.h.J.L.L.0.E.L.Y.P.L.P.J.w.^.L.L.J.L.J.I.2.Y.H.G.G.s.s.+.G T U E T     ",
"    T L G G J m h s.j.G.I.I.I.0.^.P.E.L.J.L.P.q.~.P.P.L.I.E.I.0.Y.P.P.J.F.s.1.e A F C G L   ",
"M U Q Y P T R m { G.L.x.I.I.I.e.(.P.P.L.P.L.P.r.~.I.I.I.E.R.E.q./.P.P.P.L.G.<.r T ! ! C.! T ",
"F c.! Q T T T m { G.L.G.I.I.P.0.(.J.P.L.L.L.P.r.E.I.I.Y.P.P.E.q.(.L.L.J.L.L.e.y c.! c.C.! R ",
"F ! ! b.B.v.Y m } G.L.l.I.L.I.w.(.P.J.P.L.J.P.q.Y.I.E.I.P.P.P.q.^.L.L.J.J.P.F.y `.T ! c.! ! ",
"V T W Q R E E m } l.l.J.I.L.L.w.(.J.J.J.L.H.L.q.Y.P.R.R.L.L.P.w./.L.L.H.J.P.H.y ].Q R ! Q T ",
"B I K L L I T m } j.j.J.L.L.L.w.^.J.J.J.J.J.L.0.Q.L.I.R.L.L.T.w.^.l.L.G.J.L.U.y _.R I I P K ",
"z v v v v v v x { G.J.J.L.L.J.0.W.J.J.J.J.J.L.,.^.L.P.L.L.L.L.w.W.l.l.J.J.L.K.q v c b v c c ",
"      P {.{.M.M { G.x.x.L.x.x.1.W.l.G.j.J.x.x.1.~.J.x.L.J.L.x.1.W.j.j.G.l.l.F.r S.A.b.U 9   ",
"      L _._.E V } J.J.J.L.J.L.2.W.J.J.J.J.J.J.1.!.l.J.J.J.l.J.1.Y.h.h.j.l.l.F.r {.Q Q U 9   ",
"      F ! n.W B } G.J.L.L.J.L.0.I.l.J.J.J.L.L.0.I.j.l.J.l.l.l.w.Y.g.e.9.p.g.F.y `.Q Y T 9   ",
"      F T d.W B } j.G.J.J.J.J.0.R.l.l.J.J.J.x.0.R.l.x.G.l.j.P.2.I.5.D. X.Xd.H.y b.P G L 9   ",
"      F Y Y L b } G.G.x.J.J.l.1.Y.x.l.J.J.J.l.1.I.l.G.L.G.l.P.,.P.%.u I A +.F.y Q I F K 9   ",
"    9 b C C b z } G.G.G.G.x.l.,.W.L.J.J.x.L.x.2.!.x.G.L.J.L.L.,.R.u.'.A ~ D.1.< C C V C 9   ",
"b Y Y T W W Y b { J.l.j.G.j.L.2.~.x.x.J.J.L.J.2.~.l.l.L.J.L.I.,.Y.D Q O w |.d q T U I I L W ",
"C c.Q Q c.! R m { l.j.j.j.h.G.>.!.x.x.L.L.L.l.{ W.x.j.L.x.l.L.1.I.t A L x ! = < _.L I W n.n.",
"Z Q c.c.b.R T b { j.h.j.j.h.j.[ R.x.l.x.J.L.x.[ Y.j.j.j.G.j.j.{ R.4 Y |.}.C & q `.P P W _.n.",
"F B.c.M.! T U m { z.j.f.p.s.s.' R.j.j.l.j.j.j.} I.h.g.j.h.j.j.[ J.7 + . . 0 %.; {.! ! d.c.W ",
"C c.! c.c.T Y b } f.g.f.9.8.9.` x.z.z.l.h.h.h.| R.e.e.g.g.g.g.' J.5.g.g.e.h.r., S.v.c.c.n.W ",
"B Y R U P G G v | f.g.9.7.7.6.h x.f.f.g.e.f.f.' x.9.6.9.9.9.9.` z.3.8.8.%.*.2., P T Y P W J ",
"z v v c A F A c ^ 7.;.*.;.;.*.` z.7.6.f.7.9.7.' j.6.*.6.6.7.;.^ p.) %.#.) | 2., B F F F c 9 ",
"      F ! b.c.V 8 &.&.&.#.&.#.s z.;.;.7.;.6.7.' g.*.#.*.&.*.;.0 9.^ @./ ( ) <., b.n.n.W 9   ",
"      G T Q R V 8 X.X.X.X.X._ p p.o.#.=.=.;.*.( p.#.#.#.#.#.#.p ;.6 ^ 8 a ^ <.< {.R R U 9   ",
"      G ! T R V 3 / / / / / ^ - t.X.X.X.#.X.X.a ;./ / ) / / ) = #.5 6 8 6 6 ( , b.W Y c.9   ",
"      L Q Y U m 2 ^ 8 8 ^ 7 6 = =./ ^ ..X./ ..d t.^ 8 8 ^ ^ ^ % _ 5 5 5 6 5 a X c.W c.v.9   ",
"      F P L G b 2 7 5 3 5 5 2 % o.8 8 f / f ^ a =.7 5 5 8 7 8 $ f - 2 5 - - h q T R c.n.9   ",
"      9 x x 9 O % 1 * * * * * $ 7 1 1 1 3 1 2 * 8 1 1 1 * * 1 @ 2 % % % % % % o 9 c c m 9   ",
"                                                                                            "
};
