/* XPM */
static char *a70ace94b7454a31e68692111fd64106veFmJCzn1VHkCeR7[] = {
/* columns rows colors chars-per-pixel */
"46 46 196 2 ",
"   c None",
".  c black",
"X  c #180713",
"o  c #151615",
"O  c #1F1510",
"+  c #191A19",
"@  c #1B1D1B",
"#  c #1C1D1C",
"$  c #250D1B",
"%  c #270E1D",
"&  c #2B0E1F",
"*  c #221813",
"=  c #231A15",
"-  c #2F1528",
";  c #321A22",
":  c #301528",
">  c #202120",
",  c #202220",
"<  c #232523",
"1  c #272024",
"2  c #262726",
"3  c #2C272A",
"4  c #2B2D2B",
"5  c #33272F",
"6  c #35282F",
"7  c #411730",
"8  c #4A1435",
"9  c #4C1437",
"0  c #441832",
"q  c #4A1A36",
"w  c #4B1A37",
"e  c #4A143B",
"r  c #4B143C",
"t  c #4D153D",
"y  c #4D153E",
"u  c #451939",
"i  c #4C1B38",
"p  c #521D3C",
"a  c #541D3E",
"s  c #532C2D",
"d  c #413127",
"f  c #423127",
"g  c #4C3325",
"h  c #563129",
"j  c #513C31",
"k  c #553438",
"l  c #612E2D",
"z  c #7C2837",
"x  c #7D203D",
"c  c #6D3933",
"v  c #61412F",
"b  c #614130",
"n  c #604636",
"m  c #78513B",
"M  c #7E553E",
"N  c #501640",
"B  c #521641",
"V  c #521642",
"C  c #541743",
"Z  c #571E40",
"A  c #571846",
"S  c #581D41",
"D  c #5A1F41",
"F  c #581847",
"G  c #5B1948",
"H  c #5D194A",
"J  c #5D194B",
"K  c #5E1A4B",
"L  c #601A4C",
"P  c #631B4F",
"I  c #661F52",
"U  c #691D54",
"Y  c #6B1D56",
"T  c #6C1D56",
"R  c #5D2044",
"E  c #5E2044",
"W  c #602146",
"Q  c #612047",
"!  c #602147",
"~  c #64234A",
"^  c #66244B",
"/  c #67244C",
"(  c #67254C",
")  c #6F244B",
"_  c #68254C",
"`  c #6B254E",
"'  c #6B264F",
"]  c #73254C",
"[  c #6E2350",
"{  c #772057",
"}  c #722854",
"|  c #732854",
" . c #75205D",
".. c #76205F",
"X. c #77205F",
"o. c #7E215C",
"O. c #7F2C5D",
"+. c #792161",
"@. c #7E2265",
"#. c #8A243C",
"$. c #84283A",
"%. c #8B284F",
"&. c #942240",
"*. c #9B2443",
"=. c #932950",
"-. c #A02545",
";. c #A52647",
":. c #AD2A4B",
">. c #B52A4E",
",. c #A72A51",
"<. c #A42B53",
"1. c #B12B52",
"2. c #BF2C52",
"3. c #B92D54",
"4. c #BE2D54",
"5. c #B8305E",
"6. c #892464",
"7. c #862F63",
"8. c #822368",
"9. c #822468",
"0. c #86256B",
"q. c #86256C",
"w. c #87256C",
"e. c #88256D",
"r. c #93286B",
"t. c #97296E",
"y. c #883064",
"u. c #90336A",
"i. c #93346C",
"p. c #97356F",
"a. c #8D2771",
"s. c #9E2A73",
"d. c #9E2B7E",
"f. c #9E2B7F",
"g. c #9F2B7F",
"h. c #993570",
"j. c #A03265",
"k. c #BC3261",
"l. c #A32B77",
"z. c #A53979",
"x. c #C12D53",
"c. c #C62E55",
"v. c #C8366A",
"b. c #9D694E",
"n. c #A26D51",
"m. c #AD7155",
"M. c #AA775B",
"N. c #B97C5C",
"B. c #BA7F5F",
"V. c #A07168",
"C. c #B6876D",
"Z. c #B98073",
"A. c #BC8F76",
"S. c #C68562",
"D. c #D08C67",
"F. c #D08C68",
"G. c #D59979",
"H. c #E59A72",
"J. c #EDA47D",
"K. c #A52D84",
"L. c #AA2E88",
"P. c #AB2F89",
"I. c #AC2F8A",
"U. c #B43190",
"Y. c #B63292",
"T. c #B73293",
"R. c #BC3397",
"E. c #BD3397",
"W. c #BD3498",
"Q. c #C63590",
"!. c #CC3695",
"~. c #C836A0",
"^. c #CB37A3",
"/. c #D73AAC",
"(. c #DB3BB0",
"). c #DC3CB1",
"_. c #DF3DB3",
"`. c #E03DB4",
"'. c #E13DB4",
"]. c #E33EB6",
"[. c #B84087",
"{. c #CC4796",
"}. c #DC4DA1",
"|. c #E14FA5",
" X c #E550A8",
".X c #E650A9",
"XX c #EB52AD",
"oX c #ED40BE",
"OX c #FF59BB",
"+X c #F342C3",
"@X c #F743C6",
"#X c #D39482",
"$X c #D99587",
"%X c #DCA384",
"&X c #F6B18C",
"*X c #FFBD99",
/* pixels */
"                                                                                            ",
"                                    P P P P P P P P P P P                                   ",
"                                    P P P P P P P P P P P                                   ",
"                                    P P P P P P P P P P P                                   ",
"                                  ..K.L.d.0.q.0.0.0.d.P.K...                                ",
"                              P P ..].@X_.I.I.I.P.P._.@X]...P P                             ",
"                              T T @.'.+X_.P.P.I.I.I.(.+X].@.T U                             ",
"                          P P R.'.(.R.T.U.P.I.I.I.I.U.T.R.(.].E.P P                         ",
"                        P P P ~.@XoXY.P.I.I.P.P.I.I.I.I.T.+X@X!.P P                         ",
"                        +.9.9.R./.^.a.8.8.8.8.8.8.8.8.8.a.~./.R.8.8.+.                      ",
"                    P P e.I.I.I.I.K.A e e e e e e e e e N K.I.I.I.I.q.P I                   ",
"                    P P e.I.I.P.L.d.F e e e e e e e e e V K.P.P.I.I.q.L P                   ",
"                    P P e.I.I...F F y e V J J J J J N e N F J ..I.I.q.I I                   ",
"                    P P e.I.I.U e e e e V P P P I I V e e e e U I.I.q.I P                   ",
"                    u u I q.q.H e y V A F P P P L P F V N e e J q.q./ u u                   ",
"                    o o : e e e e y J P P P P P P P L I J N e e e e - o o                   ",
"                    o o - e r r e V P P P P P P P P P P P N N N e e - o o                   ",
"            o o o # 2 2 3 5 5 V.#XB.- X k $X$X$X$X$Xk X ; B.#XV.5 5 3 2 2 + o o             ",
"            o o o # 4 4 4 4 4 A.*X%X# . j *X*X*X*X*Xj . + %X*XA.4 4 4 4 4 # o o             ",
"            o o o # 4 4 4 4 4 C.&XG.* . j *X*X*X*X*Xj . O G.&XC.4 4 4 4 4 # o o             ",
"            o o o # 4 4 4 4 4 M.H.S.O . j *X*X*X*X*Xj . O S.H.M.4 4 4 4 4 # o o             ",
"            o o o # 4 4 4 4 4 M.H.S.O . j *X*X*X*X*Xj . O S.H.M.4 4 4 4 4 # o o             ",
"                  + # # < 4 4 n m M b.n.B.J.J.J.J.J.S.b.b.M m n 4 4 2 + # +                 ",
"                    o o , 4 4 d g b F.H.H.H.H.H.H.H.H.H.D.v g 6 4 4 , o o                   ",
"                    o o 1 6 6 h l c m.N.N.N.N.N.B.N.N.N.m.c l s 6 6 1 o o                   ",
"                        i i i x &.#.h g g g g g g g g g h #.#.x i i                         ",
"                        i i i z &.#.h g g g g g g g g g h #.*.x i i                         ",
"                    i i [ @.O.<.>.:.$.z z z z z z z z z $.:.>.<.O.O.[ i i                   ",
"                    i i } h.h.5.c.x.*.#.&.&.&.&.&.&.&.&.*.x.c.5.h.h.} i i                   ",
"                    [ ' y.z.z.c.c.x.;.;.-.-.-.-.-.-.-.-.;.x.c.5.z.z.y._ `                   ",
"            ( ( / 7.{.{.{.{.{.v.c.c.c.c.c.c.c.c.c.c.c.c.c.c.c.v.{.{.{.{.{.y.~ _             ",
"            ~ ( / y.{.{.{.{.{.v.c.c.c.c.c.c.c.c.c.c.c.c.c.c.c.v.{.{.{.{.{.7._ ~             ",
"            ( ~ _ u.XXXX}.{.{.j.%.=.4.c.c.c.c.c.c.c.c.c.4.=.%.h.{.{.}.XXXXu.~ _             ",
"            ~ ( ~ p.OXOX X{.{.7.~ ] 3.c.c.c.c.c.c.c.c.c.3.] ~ 7.{.{. XOXOXp._ ~             ",
"            ~ ( _ i.|.|.{.Y.[.O.~ ) ,.1.1.1.1.1.1.1.1.1.:.) ! 7.[.[.{.|.|.i.~ _             ",
"                    _ _ _ / ( ! R R E E E E E E E E E E W W a ! _ _ _ _ _                   ",
"                    ~ _ ( ( ( W E E E R R R R R E E W W E E L W ~ ^ ~ _ ~                   ",
"                        q 7 7 p E E E R D p p p p p a L E E D a 7 7 i                       ",
"                        % % * i D L R D Z q q q q q a D E E E i $ $                         ",
"                        & & & a [ ` } [ ! 0 0 0 7 0 ~ ` ` ` ` D & &                         ",
"                        9 8 8 s.Q.Q.Q.Q.r.% % % % & r.Q.Q.Q.Q.s.8 8                         ",
"                        9 9 9 l.!.!.!.!.t.$ $ $ $ $ t.!.!.!.!.l.9 9                         ",
"                              o.6.6.6.6.{           { 6.6.6.6.o.                            ",
"                              9 9 9 9 9 9           9 9 9 9 9 9                             ",
"                              9 9 9 9 9 9           9 9 9 9 9 9                             ",
"                                                                                            "
};
