/* XPM */
static char *_9e2731205994e06b4c3ef5d5624e9b1Jn2IS3yoNY35Y7Xa[] = {
/* columns rows colors chars-per-pixel */
"46 46 136 2 ",
"   c None",
".  c #323443",
"X  c #383747",
"o  c #313A47",
"O  c #393846",
"+  c #303E4C",
"@  c #3F3C49",
"#  c #433E4A",
"$  c #2F414E",
"%  c #3F404F",
"&  c #33484D",
"*  c #2E4451",
"=  c #2D4A56",
"-  c #2D4D58",
";  c #324D51",
":  c #2C525D",
">  c #2D5A5F",
",  c #335253",
"<  c #335C57",
"1  c #305B5C",
"2  c #33675E",
"3  c #346B5F",
"4  c #2B5660",
"5  c #295C65",
"6  c #2F6D67",
"7  c #27666E",
"8  c #28626B",
"9  c #2B6A6B",
"0  c #336B61",
"q  c #2B706E",
"w  c #337264",
"e  c #347966",
"r  c #327C6B",
"t  c #256D74",
"y  c #2E7C70",
"u  c #23797E",
"i  c #24737A",
"p  c #4C434D",
"a  c #434552",
"s  c #4D4E5B",
"d  c #5D4D54",
"f  c #4F515E",
"g  c #604F55",
"h  c #655257",
"j  c #6A5459",
"k  c #70585C",
"l  c #5D4E68",
"z  c #595A67",
"x  c #5E5F6B",
"c  c #714E6D",
"v  c #645263",
"b  c #675B69",
"n  c #685F6B",
"m  c #7C5F60",
"M  c #795B6F",
"N  c #795173",
"B  c #7B5D70",
"V  c #7C5879",
"C  c #646671",
"Z  c #7E6676",
"A  c #6E707A",
"S  c #8A597E",
"D  c #806665",
"F  c #946D6A",
"G  c #986F6B",
"H  c #87736F",
"J  c #806D7B",
"K  c #82747F",
"L  c #AB7B73",
"P  c #33826D",
"I  c #35896E",
"U  c #27817E",
"Y  c #28847E",
"T  c #2B8B7D",
"R  c #308573",
"E  c #358E70",
"W  c #2E927D",
"Q  c #359474",
"!  c #369B77",
"~  c #30977D",
"^  c #319A7D",
"/  c #36A57C",
"(  c #3BAA7F",
")  c #B78177",
"_  c #7E7F89",
"`  c #985E87",
"'  c #955D85",
"]  c #B76B9C",
"[  c #BC6D9F",
"{  c #BC759D",
"}  c #C678A4",
"|  c #3EAE81",
" . c #47B786",
".. c #47B886",
"X. c #49B987",
"o. c #4BBC89",
"O. c #4FC08B",
"+. c #55C68E",
"@. c #5ACB91",
"#. c #5FD194",
"$. c #80818B",
"%. c #8A8B93",
"&. c #BB8198",
"*. c #A8A9AF",
"=. c #B6B7BC",
"-. c #CC8E80",
";. c #DC9786",
":. c #E39C8A",
">. c #E6A18D",
",. c #E8A490",
"<. c #ECAC95",
"1. c #EFB199",
"2. c #F2B79D",
"3. c #F4BA9F",
"4. c #CE84A6",
"5. c #D28EA7",
"6. c #D38EA8",
"7. c #DF91B0",
"8. c #E396B2",
"9. c #E79AB4",
"0. c #F5BCA1",
"q. c #F7C0A4",
"w. c #FAC5A7",
"e. c #FBC7A9",
"r. c #FDCAAB",
"t. c #FDCFB0",
"y. c #FED2B4",
"u. c #FED6B8",
"i. c #FEDBBD",
"p. c #CACBCE",
"a. c #FFDFC2",
"s. c #FFE3C6",
"d. c #ECECEE",
"f. c #EFF0F1",
"g. c #F4F4F5",
"h. c white",
/* pixels */
"                                    + + + $ + + + . . . o $ $ + +                           ",
"                                . = t T W T T W T 3 3 3 : 4 q T 9 $ .                       ",
"                              . : i u u ^ / / / Y / u u 8 . 3 ~ u - .                       ",
"                            . o 8 T / / / / / / / / ( | ( / ( ( / / , .                     ",
"                            . 4 Y T ^ / / / / / / ( #.#.#.o.o.o./ W , .                     ",
"                            . 4 W / / / / / / / / / | o.+.( ( ( / / , .                     ",
"                            o 5 u u U ^ T / / / @.( @.@.@.o. . ./ / , .                     ",
"                          . - u W / / / / / / / / / ! w r R w E / / < .                     ",
"                          . : u u U U 1 ; , ; ; / / I . - 8 . 3 w ; o . .                   ",
"                          . : u u u = p.h.d.d.. o / / I = 5 2 3 . =.h.f.d.a                 ",
"                          . - u u u = %.*.a . . O / / Q w y P 3 . _ *.s . .                 ",
"                          o - u u u = 5 7 P 9 . o Y Y Y Y Y Y > . 4 7 P I o                 ",
"                          . : u u u - o . . . . . . . . . . . . o . . . . .                 ",
"                        . - u u u u u 8 l M M B M K K J M M J K Z Z Z B B O                 ",
"                        . - u u u u 4 V 4.8.9.v v n n b v v v n v b v v 6.&.X               ",
"                        . - u u u u - ' 7.9.@ . h.h.h.h.g.g.g.g.g.g.g.n . 6.X               ",
"                        . = u u i u = ' 7.9.@ _ $.$.$.$.$.$.$.z . C $.$.% { X               ",
"                        . = u u u u - ' } 8.@ A A A A A A A A f . z A A @ { o               ",
"                        . = u u i t - ' [ [ [ { ] ] ] ] ] ] ] ] ] ] [ [ [ [ X               ",
"                        . - U Y u | = . N S S S . . . . . . . . . . c S S S o               ",
"                        . - u T | | E * . . . . L L L L L L L L h . . . .                   ",
"                        . = T / ~ T / , . -.:.;.:.r.r.r.r.r.r.1.m .                         ",
"                        . - u U U ^ / , . -.;.<.<.2.r.r.0.2.0.<.D .                         ",
"                        . + = 9 W W ^ , . -.>.<.r.e.r.r.r.r.r.2.D .                         ",
"                        . . . 0 / / / , . -.w.r.r.r.r.r.r.r.r.r.H .                         ",
"                        . < / / / / / , . -.e.r.r.r.r.y.s.s.s.u.H .                         ",
"                . . . * 9 I / / / / / , . -.e.r.r.r.r.r.y.i.i.y.H .                         ",
"                . . . * i u T / / / / , . -.w.r.r.a.r.s.s.s.s.u.H .                         ",
"                . o u u U ~ ~ 0 . e / , . -.w.r.r.r.r.r.r.y.t.r.H .                         ",
"                    - - : - - 4 0 Q / , . -.<.r.<.r.r.r.r.u.t.0.D .                         ",
"                    . . . . . 4 W / / , . -.w.r.r.r.r.r.r.r.r.e.H .                         ",
"                        . - u u Y ~ W * . -.:.<.:.,.<.r.r.0.<.>.m .                         ",
"                        . - u | Y T T * . k ;.<.:.<.1.<.<.1.<.>.m .                         ",
"                        . . : - o o o . . . @ @ # @ @ @ @ @ @ G m .                         ",
"                        . - 8 7 = 4 * . . . . . . . p F d ) ) ) j .                         ",
"                        . + 5 * . . . . . . . . . . . . . . d G d .                         ",
"                        . . + . . . . . . . . . . . . . . . O # O .                         ",
"                        . . . . . . . . . . . . . . . . . . . . . .                         ",
"                        . . . . . . . . . . . . . . . . . . . . . .                         ",
"                        . . . . . . . . . . . . . . . . . . . . . .                         ",
"                        o . . . . . . . . . . . . . . . . . . . . .                         ",
"                        X . . . . . .                 . . . . . . .                         ",
"                        . . . . .                     . . . . . . .                         ",
"                        . . . . .                     . . . . . . .                         ",
"                                                      . . . . .                             ",
"                                                      . . o .                               "
};
