/* XPM */
static char *_e75d183de85470eaeef597bde3bd7dbw5D34k5JRPJYO0pF[] = {
/* columns rows colors chars-per-pixel */
"46 46 33 1 ",
"  c #78A158",
". c #89AE5D",
"X c #8DB15D",
"o c #92B55F",
"O c #98B960",
"+ c #9BBC61",
"@ c #9FBF62",
"# c #A0C062",
"$ c #A1C062",
"% c #A3C263",
"& c #A4C263",
"* c #A5C364",
"= c #A7C465",
"- c #A9C666",
"; c #ABC767",
": c #ACC867",
"> c #ADC868",
", c #AFC968",
"< c #B1CB6A",
"1 c #B2CB6A",
"2 c #B2CC6A",
"3 c #B4CD6B",
"4 c #B5CD6B",
"5 c #B5CE6C",
"6 c #B7CF6C",
"7 c #B8CF6C",
"8 c #B8CF6D",
"9 c #B9D06D",
"0 c #BCD26F",
"q c #BDD36F",
"w c #BED36F",
"e c #BED470",
"r c #BFD470",
/* pixels */
"  O=$&$==$%%%%&%%%%%$=$$%%*$=%$=%%$$*$%%%%O   ",
" +$$=$%$$$%%%-9%%%%%*$%e=%$*$=q9ee<%%*%&%%$++ ",
"O$**%%=9$59999r969-293=r9-,999eerr1;4*%*%%%%@ ",
".$&$%=9q5q99eerr:q69eq2re99e92reee77e<<*>;%%# ",
" +%%-9qerr99rrrr2errrrrr99rr92rrrrrrree777>%%.",
"X#%-9qrerrqrrrrreerrrrrr,9rrrrrrrrrrreerrr5>&*",
"$$%2errrrrrrrrrrerrrrrrreerrrrrrrr7errrrrrr7$*",
"#=&$<rrrrrrrrrrrerrrrrrrrrrrrrrrrr1,rrrrrrr7*$",
"=$9errrrrrrrrrrrrrrrrrrrrrrrrrrrrrrrrrrr><r7%%",
"#%9errrrrr:9rrrrrrrrrrrrrrrrrrrrrrrrrrrr7err5%",
"=$969qrrrr99rrrrrrrrrrrrrrrrrrrrrrrrrrrrerr7,*",
"#2q69rrrrrrrrrrrrrrrrrrrrrrrrrrrrrrrrrrrrrre<%",
"&9errrrrrrrrrrrrrrrrrrrrrrrrrrrrrrrrrrrrrrrr7*",
"%99errrrrrrrrrrrrrrrrrrrrrrrrrrrrrrrrrrrrrrre%",
"$=6errrrrrrrrrrrrrrrrrrrrrrrrrrrrrrrrrrrrrrr7*",
"=qq,2rrrrrrrrrrrrrrrrrrrrrrrrrrrrrrrrrrrrrrre%",
"*9eeerrrrrrrrrrrrrrrrrrrrrrrrrrrrrrrrr*eerr7**",
"*-ererrr<9rrrrrrrrrrrrrrrrrrrrrrrrrrrr7ree7-%%",
"$$-7eerr39rrrrrrrrrrrrrrrrrrrrrrrrrrrrrrrr0,&%",
"&*<7rrrrrerrrrrrrrrrrrrrrrrrrrrrrrrrrrrrrr7>*$",
"$$7r99errrrrrrrrrrrrrrrrrrrrrrrrrrrrrrrrrr4&$*",
"&-7r7<rrrrrrrrrrrrrrrrrrrrrrrrrrrrrrrrrrrr5-*$",
"$errrrrrrrrrrrrrrrrrrrrrrrrrrrrrrrrrrrrrrrr7$*",
"$errrrrrrrrrrrrrrrrrrrrrrrrrrrrrrrrrrrrr,<r7*$",
"*-9rrrrrrrrrrrrrrrrrrrrrrrrrrrrrrrrrrrrr9er7$*",
"*$7rrrrrrrrrrrrrrrrrrrrrrrrrrrrrrrrrrrrrrrr5*$",
"*$7errrrrrrrrrrrrrrrrrrrrrrrrrrrrrrre<errr9<$*",
"$*<9r97rrrrrrrrrrrrrrrrrrrrrrrrrrrrr9<errr7;*$",
"$*-7r9<wrrrrrrrrrrrrrrrrrrrrrrrrrrrrrrrr9ww7-*",
"**7rrrrrrrrrrrrrrrrrrrrrrrrrrrrrrrrrrrrr<3re9*",
"$rerrrrrrrrrrrrrrrrrrrrrrrrrrrrrrrrrrrrrrrrrw$",
"$=7rrrrrrrrrrrrrrrrrrrrrrrrrrrrrrrrrrrrrrrrre$",
"=9qerrrrrrrrrrrrrrrrrrrrrrrrrrrrrrrrrrrrrrr7-$",
"$,9errrrrrrrrrrrrrrrrrrrrrrrrrrrrrrrrrrrrrr5**",
"%%,9rreqrrrrrrrrrrrrrrrrrrrrrrrrrrrrre<err9<*$",
"%%=9rre9rrrrrrrrrrrrrrrrrrrrrrrrrrrrqr:err7-$*",
"%%5qee9-rrrerrrrrrrrrrrrrrrrrrrrrrrrrrrrre99*&",
"%%%9eerrrrrerrrrrrrrrrrrrrrrrrrrrrrrrrrrrq9$$*",
"%%9eeeerrr,2rrrrrrrrrrrrrrrqrqrrrrrrrrrrrrr9*$",
"%%9qeerrrrwqrrrr-9rrrrrrrrr9<wrrrrrrrrrrrrr9$&",
"=$::7rrrrrrrrrrr9qeeerrrrrew9eeerre72ee:9r6-%%",
"$*$-9rrr<errrrrreqee93rrreeeeeeerrr93ee99r9$$X",
"O#$<9ew<>eerrrrre99q92rrr79ee3qerreeeeqer9<&# ",
" +*$,73*57e97rrr9-299rrr7-:92=9erre9re699:$&+ ",
" +$=*$*$*$4,<e8e**$*>e7r-*$*%%%eee<-ee%%%%%%+ ",
"  O$$*$*$*$$*$&**$*$$**$*$*$%%%%*$&*%%%%%%%O  "
};
