/* XPM */
static char *fc86710bea99481fdde959237cfddc7eqilAsxPFoYBP9tlz[] = {
/* columns rows colors chars-per-pixel */
"46 46 166 2 ",
"   c None",
".  c #323443",
"X  c #343443",
"o  c #353543",
"O  c #363443",
"+  c #363444",
"@  c #393444",
"#  c #383544",
"$  c #403545",
"%  c #413545",
"&  c #453545",
"*  c #443946",
"=  c #463947",
"-  c #503546",
";  c #503646",
":  c #513647",
">  c #563647",
",  c #573647",
"<  c #593647",
"1  c #5B3648",
"2  c #5D3648",
"3  c #5A3E4A",
"4  c #5E3F4B",
"5  c #613648",
"6  c #623649",
"7  c #663749",
"8  c #70374A",
"9  c #73374A",
"0  c #7B384B",
"q  c #7C384B",
"w  c #7F384C",
"e  c #7E3A4C",
"r  c #61404B",
"t  c #62404B",
"y  c #63414C",
"u  c #67424C",
"i  c #71444E",
"p  c #72454E",
"a  c #81384C",
"s  c #85384C",
"d  c #85384D",
"f  c #89384D",
"g  c #8A384D",
"h  c #8B384D",
"j  c #8D394D",
"k  c #8B3D4F",
"l  c #90394E",
"z  c #91394E",
"x  c #9E394F",
"c  c #9F394F",
"v  c #A43A50",
"b  c #A73A50",
"n  c #AA3A51",
"m  c #AF3A51",
"M  c #B03A52",
"N  c #B13A52",
"B  c #BD3B53",
"V  c #BE3C53",
"C  c #BE3C54",
"Z  c #BF3D54",
"A  c #C03E54",
"S  c #C13E54",
"D  c #C13F54",
"F  c #C13F55",
"G  c #8B4651",
"H  c #834951",
"J  c #874A52",
"K  c #964151",
"L  c #924D54",
"P  c #9A4F55",
"I  c #9E5056",
"U  c #A14E56",
"Y  c #B04C57",
"T  c #A45157",
"R  c #B7565A",
"E  c #BD585B",
"W  c #C24055",
"Q  c #C34155",
"!  c #C44156",
"~  c #C54256",
"^  c #C64456",
"/  c #C74457",
"(  c #C84557",
")  c #C84657",
"_  c #C94657",
"`  c #CA4758",
"'  c #C14958",
"]  c #CB4858",
"[  c #CD4A59",
"{  c #CE4B59",
"}  c #CF4C5A",
"|  c #D04D5A",
" . c #D14E5B",
".. c #D24F5B",
"X. c #C5505A",
"o. c #C0595C",
"O. c #C75B5D",
"+. c #C85B5D",
"@. c #D3505B",
"#. c #D4505B",
"$. c #D5515C",
"%. c #D5525C",
"&. c #D7535D",
"*. c #D8545D",
"=. c #DA565E",
"-. c #D15A5E",
";. c #DC585F",
":. c #DD585F",
">. c #DD595F",
",. c #DE5A5F",
"<. c #DF5A5F",
"1. c #D45E60",
"2. c #D75F60",
"3. c #DF5A60",
"4. c #DF5B60",
"5. c #E05B60",
"6. c #E05C60",
"7. c #E15C60",
"8. c #E15D60",
"9. c #E25D61",
"0. c #E35E61",
"q. c #E45F61",
"w. c #E45F62",
"e. c #E06162",
"r. c #E46062",
"t. c #E56062",
"y. c #E66162",
"u. c #E76262",
"i. c #E76263",
"p. c #E86363",
"a. c #E86463",
"s. c #E86564",
"d. c #E96664",
"f. c #E96765",
"g. c #E96865",
"h. c #E96A66",
"j. c #EA6B66",
"k. c #EA6E68",
"l. c #EA6F68",
"z. c #EB7069",
"x. c #EB726A",
"c. c #EB736A",
"v. c #EB746A",
"b. c #EC756B",
"n. c #EC766B",
"m. c #EC776C",
"M. c #EC796C",
"N. c #ED7A6D",
"B. c #ED7D6E",
"V. c #EE806F",
"C. c #EE8371",
"Z. c #EF8471",
"A. c #EF8672",
"S. c #EF8873",
"D. c #F08873",
"F. c #F08973",
"G. c #F08A74",
"H. c #F08B74",
"J. c #F18D75",
"K. c #F18E75",
"L. c #F18F76",
"P. c #F19177",
"I. c #F29277",
"U. c #F29377",
"Y. c #F29378",
"T. c #F29478",
/* pixels */
"                                                                                            ",
"                                                                                            ",
"                                                                                            ",
"                                                                                            ",
"                                                                                            ",
"                                                                                            ",
"                                                                                            ",
"                                                                                            ",
"                                                                                            ",
"                          . . . . . .                     . . . . + .                       ",
"                          1 6 6 6 6 ,                     y i i i i u                       ",
"                    . . % f M m M M 0 . . .         . . . L 2.2.2.2.T * . .                 ",
"                  . . , 0 v D [  . .Y J J H 4     r J J J E p.p.a.y.+.L t . .               ",
"                . X + a B B ^ >.i.s.p.y.y.2.i + # i -.a.s.s.s.s.s.s.s.a.I # X .             ",
"            . . . , d v B B D ] &.y.:.[ >.e.R I I R e.z.B.C.C.B.V.V.n.a.O.I t . . .         ",
"            . . . 8 B B B B C W  .w.*.! *.p.p.p.a.s.p.M.T.T.T.T.T.T.Z.h.a.y.H . . .         ",
"            . . . 8 B B B B ! &.5.y.0.>.0.p.p.p.p.p.p.M.Y.T.T.T.T.T.A.s.a.p.H . . .         ",
"            . . . 8 B B B B ^ >.p.p.p.p.p.p.p.p.p.p.s.b.A.A.D.L.P.D.M.h.p.p.H . . .         ",
"            . . . 8 B B B B ( >.p.p.p.p.p.p.p.p.p.p.p.s.j.j.l.Z.F.b.h.p.p.p.J . . .         ",
"            . . . 8 B B B B ( >.p.p.p.p.p.s.x.x.s.h.b.b.M.b.B.F.P.B.j.s.p.p.H . . .         ",
"            . . . 8 B B B B ! >.p.p.p.p.p.s.Z.F.j.b.J.Y.Y.Y.Y.Y.T.T.Z.h.a.a.H . . .         ",
"            . . . 8 B B B B ` >.p.p.p.p.s.s.z.b.h.j.b.M.M.M.M.M.M.M.x.s.p.y.H . . .         ",
"            . . . 8 B B B D ( 0.p.p.p.p.a.p.p.p.s.p.p.p.p.p.s.p.p.p.p.p.p.p.H . . .         ",
"            . . . 8 B B V  .>.y.p.p.p.p.p.p.p.p.p.p.p.p.p.p.p.p.p.p.p.p.p.p.J . . .         ",
"            . . . 6 c m D @.>.>.5.5.w.p.w.5.y.p.p.p.p.p.p.p.p.p.y.0.>.>.-.o.i . . .         ",
"                . % ; j V W ^ ^ ^ ! %.p.%.` >.p.p.p.p.p.p.p.p.p.4.} ^ ^ K 3 * .             ",
"                . . . w V B B B W ( &.p.&.| >.p.p.p.p.p.p.p.p.p.0. .) C q . . .             ",
"                . . . a B B B B ] 7.y.p.y.w.p.p.p.p.p.p.p.p.p.p.i.y.&.W a . . .             ",
"                  . . 7 q q h m !  .%...@.%. .*.w.p.p.5.........X.U G w 7 . .               ",
"                      . . . - c V B B B V V V ( >.p.p.%.D A B A x : . . .                   ",
"                      . . . - c B B B B V V } *.y.p.p.7.&.( B B c - . . .                   ",
"                        . . - z b b M B V W %.7.7.7.7.7.5.' b n z - . .                     ",
"                              , < < d B B V ! ( ( ( ( ( ( k < < ,                           ",
"                              . . . 8 B B B B B V V V V B 8 . . .                           ",
"                              . . . 8 B B B B B B B V B B 8 . . .                           ",
"                                . . 5 d d j n B B n j s s 6 . .                             ",
"                                      X @ & z B B z & O O                                   ",
"                                      . . # 2 8 8 2 # . .                                   ",
"                                      . . . . . . . . . .                                   ",
"                                            . . . .                                         ",
"                                            . . . .                                         ",
"                                                                                            ",
"                                                                                            ",
"                                                                                            ",
"                                                                                            ",
"                                                                                            "
};
