/* XPM */
static char *_2ddb0aeb0564d9de64741e7fd356c46qDkQ3XxkJDsBk4eH[] = {
/* columns rows colors chars-per-pixel */
"46 46 249 2 ",
"   c None",
".  c black",
"X  c #151615",
"o  c #1F1510",
"O  c #191A19",
"+  c #1B1C1B",
"@  c #1B1D1B",
"#  c #1C1D1C",
"$  c #250D1B",
"%  c #280E1D",
"&  c #2A0F1F",
"*  c #310F1E",
"=  c #23171E",
"-  c #380F2D",
";  c #2D1021",
":  c #271821",
">  c #2B1821",
",  c #331020",
"<  c #3A1224",
"1  c #3C1A23",
"2  c #3F1A23",
"3  c #371328",
"4  c #3A142A",
"5  c #33182B",
"6  c #351B2E",
"7  c #3C1832",
"8  c #202120",
"9  c #242524",
"0  c #272927",
"q  c #2B2D2B",
"w  c #2C2E2C",
"e  c #2D2F2D",
"r  c #3A2A20",
"t  c #2E302E",
"y  c #2F312F",
"u  c #2F3230",
"i  c #303230",
"p  c #333533",
"a  c #353836",
"s  c #373A38",
"d  c #393C3A",
"f  c #4A1120",
"g  c #451B26",
"h  c #5D1628",
"j  c #59172C",
"k  c #501E2A",
"l  c #5C182E",
"z  c #401431",
"x  c #4C1437",
"c  c #471934",
"v  c #481935",
"b  c #4A1A36",
"n  c #4A143B",
"m  c #4C143C",
"M  c #4D153D",
"N  c #4E153E",
"B  c #4F153F",
"V  c #4C1B38",
"C  c #4E1A3A",
"Z  c #4F1C3A",
"A  c #511F39",
"S  c #561C39",
"D  c #531D3D",
"F  c #521F3D",
"G  c #551D3E",
"H  c #62162A",
"J  c #63172A",
"K  c #6D192E",
"L  c #711A30",
"P  c #412C21",
"I  c #493124",
"U  c #4C3325",
"Y  c #4C3528",
"T  c #523729",
"R  c #553929",
"E  c #513C31",
"W  c #742E36",
"Q  c #5A4031",
"!  c #614130",
"~  c #664432",
"^  c #654534",
"/  c #764F3A",
"(  c #78503B",
")  c #521641",
"_  c #541743",
"`  c #551744",
"'  c #571846",
"]  c #541C45",
"[  c #561F46",
"{  c #581846",
"}  c #601F41",
"|  c #621A4E",
" . c #631B4F",
".. c #6A1D54",
"X. c #6A1D55",
"o. c #6C1D56",
"O. c #6D1E57",
"+. c #731F5C",
"@. c #562047",
"#. c #5D2044",
"$. c #5D2144",
"%. c #59224A",
"&. c #59234A",
"*. c #682042",
"=. c #652D43",
"-. c #672F44",
";. c #66244B",
":. c #712347",
">. c #6F3448",
",. c #762456",
"<. c #732854",
"1. c #75205D",
"2. c #75205E",
"3. c #76205E",
"4. c #77205F",
"5. c #792158",
"6. c #7A2159",
"7. c #782A58",
"8. c #792B59",
"9. c #7B2B5A",
"0. c #713255",
"q. c #782160",
"w. c #7B2163",
"e. c #7F2266",
"r. c #72594A",
"t. c #8A213F",
"y. c #82333B",
"u. c #85353C",
"i. c #942240",
"p. c #82225F",
"a. c #82245F",
"s. c #822E5F",
"d. c #962950",
"f. c #A42647",
"g. c #B82B4F",
"h. c #B92B4F",
"j. c #872662",
"k. c #802366",
"l. c #862862",
"z. c #832E60",
"x. c #8A2965",
"c. c #832469",
"v. c #84246A",
"b. c #86256C",
"n. c #8F2668",
"m. c #88256D",
"M. c #89256E",
"N. c #93276B",
"B. c #922C6B",
"V. c #97286E",
"C. c #97296E",
"Z. c #8D2672",
"A. c #8F2772",
"S. c #922775",
"D. c #942877",
"F. c #9E2B73",
"G. c #9E2E73",
"H. c #952878",
"J. c #972979",
"K. c #97297A",
"L. c #992A7B",
"P. c #9A2A7C",
"I. c #9C2A7D",
"U. c #9D2B7E",
"Y. c #9E2B7F",
"T. c #9F2B7F",
"R. c #9B3672",
"E. c #A32B77",
"W. c #A22F77",
"Q. c #A62C79",
"!. c #AA2D7C",
"~. c #AC3C7E",
"^. c #C22D53",
"/. c #C62E55",
"(. c #C32F5A",
"). c #C0315E",
"_. c #CE3058",
"`. c #D2315A",
"'. c #D9325D",
"]. c #DF3460",
"[. c #CD3C78",
"{. c #E73563",
"}. c #EB3665",
"|. c #F7396A",
" X c #9E6A4E",
".X c #8F6B56",
"XX c #93715C",
"oX c #A97254",
"OX c #AA775B",
"+X c #B4795A",
"@X c #B77B5B",
"#X c #B07B5E",
"$X c #B97D5C",
"%X c #BD7F5E",
"&X c #884261",
"*X c #9C7C69",
"=X c #C68562",
"-X c #D08C68",
";X c #E59A72",
":X c #EEA67F",
">X c #A22C82",
",X c #A32C83",
"<X c #A32D83",
"1X c #A72E86",
"2X c #A82E87",
"3X c #A92E87",
"4X c #AB2E89",
"5X c #AC2F8A",
"6X c #AE2F8B",
"7X c #AE3D80",
"8X c #B03D80",
"9X c #BC3E81",
"0X c #BF3E82",
"qX c #B0308D",
"wX c #B1308D",
"eX c #B63292",
"rX c #B83294",
"tX c #C3358E",
"yX c #C63490",
"uX c #C53690",
"iX c #CC3695",
"pX c #C5359D",
"aX c #D3389A",
"sX c #D9399F",
"dX c #C836A0",
"fX c #CC38A4",
"gX c #D139A8",
"hX c #DC3CB1",
"jX c #E33EB6",
"kX c #E73FB9",
"lX c #D5458E",
"zX c #DA4388",
"xX c #CC4796",
"cX c #CE4897",
"vX c #CF4898",
"bX c #D3499B",
"nX c #DD4DA2",
"mX c #DF4EA4",
"MX c #EC40BD",
"NX c #ED40BE",
"BX c #F841B5",
"VX c #F941B6",
"CX c #FD42B8",
"ZX c #FF43BA",
"AX c #F857B6",
"SX c #FF59BB",
"DX c #F041C0",
"FX c #F743C6",
"GX c #FFBD99",
/* pixels */
"                                                                                            ",
"                                 . . . . . . . . . . .                                      ",
"                                 . . . . . . . . . . .                                      ",
"                                 . . . . . . . . . . .                                      ",
"                             .1.4XwXwXwXwXU.M.M.M.b.b... .                                  ",
"                           . .4.jXFXFXFXFXgX5X5X4XqX<X.. . .                                ",
"                          4.w.M.hXMXMXMXMXfX6X5XqX4X>X1.....                                ",
"                       . .pXDXkXrXwXwXqXqX4X6X5X5X5X4XH.S.c. . .                            ",
"                     . . .dXFXkXeX5X5X5X5X5X5X5X5X5X4XH.D.c. . .                            ",
"                    ` ` _ e.D.L.4X5X5X5X5X5X5X5X>X>XU.H.D.Z.e.e.1. . .                      ",
"                    n n n n n ' U.5X5X5X5X5X6X5XP.D.D.D.D.D.D.D.w. . .                      ",
"                    ) N N N n _ A.L.U.1X1X1X1X1XP.S.D.D.D.D.D.D.w. . .                      ",
"                 . . . . .) n n n n  .S.H.S.H.H.D.D.D.D.D.D.D.D.w. . .                      ",
"                 . . . . .) n n n n  .H.H.H.H.S.D.D.D.D.D.D.D.D.w. . .                      ",
"        n n n N ` _ _ _ _ N n n n n ' 1.q.+.+.q.q.+.1.1.q.1.q.1.[ 5 5                       ",
"        n n n n n n n n n n n n n n )  . . . . . . . . . . . . .7 X X                       ",
"        n n n n n n V A A =.>.-.z 4 D &X&X0.%.%.%.&.&.@.@.@.[ [ 6 X X                       ",
"                    ^ ~ ^ %X;X=Xo . E GXGX*Xd d d d a w q q q q 8 X X                       ",
"                    ~ ~ ~ %X;X=Xo . E GXGX*Xd d d d s y q q q q 8 X X                       ",
"                    R R R $X;X=Xo . P GX:XXXd d p y y w q q q q 0 9 9 @ X X                 ",
"                    U U U +X;X=Xo . I ;X;X.Xd d i q q q q q q q q q q # X X                 ",
"                      U U  X$XoXT P ^ #X#Xr.a a y q q q q q q q q q q # X X                 ",
"                          Y Y ! -X;XOXq q q q q q q q q q q q q q q q # X X                 ",
"                          U U ! -X;XOXq q q q q q q q q q q q q q q q # X X                 ",
"                                ( ( Q @ @ @ @ @ @ @ # # # # # @ @ @ @ O                     ",
"                                U U r X X X X O X X X X X X X X X X X                       ",
"                                y.u.W k k k k k g g 2 = > = X X X X X                       ",
"                          f f J '.|.{./././././.f.t.t.S b V                                 ",
"                          f f J ].|.{./././././.f.t.t.S V V                                 ",
"                      V V j h K /.`._././.'.}.}.[.tX9X7X7XR.;.;.                            ",
"                    V V V l J L h././././.'.|.|.zXcXxXxXcX~.;.;.                            ",
"                    V V V l J L h././././.(.).).zXmXnXvXxX~.;.;.                            ",
"                    V V V l J L g././././.d.;.;.xXSXAXbXxX~.;.;.                            ",
"                    V V V l J L g././././.d.;.;.cXSXAXbXxX~.;.;.                            ",
"                          , * < *.:.:.:.:.[ S S <.z.s.8.8.8.                                ",
"                          $ $ ; D #.*.[ #.D b b #.;.;.;.;.;.                                ",
"                          6.a.j.G.W.x.G G c 4 4 ,.B.B.B.B.l.                                ",
"                    x x x yXZXZXZXZXtXb b 3 $ $ C.iXiXiXiXW.x x                             ",
"                    x x x yXZXZXZXCXtXc b 3 $ $ C.iXiXiXiXE.x x                             ",
"                    x x x tXZXVXsXaXF.& & % $ $ C.iXiXiXiXE.x x                             ",
"                    x x x yXZXVXaXiXC.$ $ $ $ $ C.iXiXiXiXE.x x                             ",
"                      x x V.!.Q.N.n.6.$ $ $ $ $ 6.n.n.n.n.p.x x                             ",
"                          x x x x x x           x x x x x x                                 ",
"                          x x x x x x           x x x x x x                                 ",
"                          x x x x x x           x x x x x x                                 ",
"                                                                                            "
};
