/* XPM */
static char *ef20533cbee74c9fd44d1eff964c0ca7WfkIngJD7U2MfTKV[] = {
/* columns rows colors chars-per-pixel */
"46 46 231 2 ",
"   c None",
".  c black",
"X  c #12050E",
"o  c #151615",
"O  c #191B19",
"+  c #1A1B1A",
"@  c #1B1C1B",
"#  c #1F1B1D",
"$  c #1C1D1C",
"%  c #1C1E1C",
"&  c #250D1B",
"*  c #260D1B",
"=  c #260D1C",
"-  c #270E1D",
";  c #34261E",
":  c #2A1725",
">  c #2B1823",
",  c #351326",
"<  c #351327",
"1  c #381429",
"2  c #3B142B",
"3  c #3C142B",
"4  c #39192C",
"5  c #202220",
"6  c #232523",
"7  c #252625",
"8  c #292B29",
"9  c #2A2C2A",
"0  c #2B2D2B",
"q  c #2D2F2D",
"w  c #2F312F",
"e  c #372832",
"r  c #392934",
"t  c #3D2D38",
"y  c #303331",
"u  c #313432",
"i  c #343735",
"p  c #363937",
"a  c #393C3A",
"s  c #4A1120",
"d  c #4C1B2E",
"f  c #501222",
"g  c #571527",
"h  c #4C1437",
"j  c #441831",
"k  c #441832",
"l  c #4A1A36",
"z  c #4A143B",
"x  c #451939",
"c  c #4C1B38",
"v  c #501932",
"b  c #541A33",
"n  c #521D3C",
"m  c #541D3D",
"M  c #63172A",
"N  c #691E32",
"B  c #681E3B",
"V  c #7A1E37",
"C  c #4C3325",
"Z  c #5D3E2E",
"A  c #483F37",
"S  c #43343F",
"D  c #5F3834",
"F  c #782138",
"G  c #654432",
"H  c #664432",
"J  c #684633",
"K  c #6D4E3E",
"L  c #78513B",
"P  c #7E553E",
"I  c #7F553F",
"U  c #501640",
"Y  c #511641",
"T  c #541743",
"R  c #551744",
"E  c #571846",
"W  c #551C45",
"Q  c #581846",
"!  c #591847",
"~  c #5B1948",
"^  c #5D194B",
"/  c #5E1A4B",
"(  c #601B4D",
")  c #611B4E",
"_  c #621B4F",
"`  c #631B4F",
"'  c #6B1C4E",
"]  c #661C51",
"[  c #6E1E50",
"{  c #6B1D56",
"}  c #6C1D56",
"|  c #6D1E57",
" . c #6F1E59",
".. c #731F54",
"X. c #761F56",
"o. c #771F57",
"O. c #701E59",
"+. c #701F5A",
"@. c #721F5B",
"#. c #731F5C",
"$. c #741F5D",
"%. c #5A2042",
"&. c #5B2043",
"*. c #5D2044",
"=. c #5E2044",
"-. c #602247",
";. c #66244B",
":. c #67244C",
">. c #68254C",
",. c #6B264F",
"<. c #712252",
"1. c #732054",
"2. c #77205F",
"3. c #782060",
"4. c #782160",
"5. c #7F2366",
"6. c #6A4544",
"7. c #614D40",
"8. c #7C4C43",
"9. c #7F4E44",
"0. c #775643",
"q. c #715444",
"w. c #822339",
"e. c #89203B",
"r. c #8C203C",
"t. c #8D203D",
"y. c #8A263F",
"u. c #89274C",
"i. c #942240",
"p. c #802851",
"a. c #82245F",
"s. c #962950",
"d. c #9E2C57",
"f. c #AA2749",
"g. c #A72F4A",
"h. c #A22B55",
"j. c #B12B52",
"k. c #B22D56",
"l. c #B72E57",
"z. c #BD3753",
"x. c #872362",
"c. c #852561",
"v. c #812367",
"b. c #892464",
"n. c #852F62",
"m. c #8C2A66",
"M. c #812368",
"N. c #86256B",
"B. c #8B266F",
"V. c #98286F",
"C. c #883064",
"Z. c #8D2671",
"A. c #912774",
"S. c #922775",
"D. c #942876",
"F. c #942877",
"G. c #962979",
"H. c #982979",
"J. c #99297B",
"K. c #992A7B",
"L. c #9C2A7D",
"P. c #9D2B7E",
"I. c #9F2B7F",
"U. c #A12A75",
"Y. c #A02E75",
"T. c #A12C76",
"R. c #A82F7B",
"E. c #AB2F7C",
"W. c #A83B7B",
"Q. c #C62E55",
"!. c #CC2F58",
"~. c #D2315A",
"^. c #DB335E",
"/. c #DE335F",
"(. c #E13461",
"). c #EB3665",
"_. c #F7396A",
"`. c #875B43",
"'. c #895C44",
"]. c #8A5C44",
"[. c #8D5F46",
"{. c #855F49",
"}. c #906047",
"|. c #8F6B56",
" X c #936A53",
".X c #A26D51",
"XX c #B97C5C",
"oX c #8E6563",
"OX c #987763",
"+X c #9C7D6A",
"@X c #BF7965",
"#X c #E59A72",
"$X c #A02B80",
"%X c #A22C82",
"&X c #A62D85",
"*X c #AA2E88",
"=X c #AB2F89",
"-X c #AC2F8A",
";X c #AD2F8A",
":X c #AF3180",
">X c #B93487",
",X c #B2318F",
"<X c #B73293",
"1X c #CC3695",
"2X c #CF3797",
"3X c #CF38A6",
"4X c #D139A7",
"5X c #D239A8",
"6X c #DA3BAF",
"7X c #EB3EAC",
"8X c #EC3EAD",
"9X c #E13DB4",
"0X c #B84087",
"qX c #BB4289",
"wX c #C94187",
"eX c #DF4183",
"rX c #C84693",
"tX c #CC4796",
"yX c #D84B9F",
"uX c #E04EA4",
"iX c #E14FA5",
"pX c #EB52AD",
"aX c #F741B4",
"sX c #FC42B8",
"dX c #FF43BA",
"fX c #FF59BB",
"gX c #F342C3",
"hX c #F743C6",
"jX c #D99587",
"kX c #F6B18C",
"lX c #FFBD99",
/* pixels */
"                                                                                            ",
"                                  ` ` ` ` ` ` ` ` ` ` `                                     ",
"                                  ` ` ` ` ` ` ` ` ` ` `                                     ",
"                                  ` ` ` ` ` ` ` ` ` ` `                                     ",
"                                2.N.N.N.N.N.J.*X*X*X*X=XB.                                  ",
"                            ` ] 5.-X-X-X-X-X5XhXhXhXhXhXL.` `                               ",
"                            ] ] v.-X-X-X-X-X3XgXgXgXgXgXT.{ |                               ",
"                      ` ] +.Z.Z.J.-X-X-X-X-X,X<X<X<X<X<X5X9X9XS.` `                         ",
"                      ` ] +.F.F.$X=X=X*X-X-X-X-X=X=X-X-X6XhXhXG.` `                         ",
"                    | 3.4.M.F.F.J.%X%X&X-X-X-X-X-X=X-X-X-X-X-X$.W !                         ",
"                ` ` +.S.F.F.F.F.F.F.F.$X-X-X-X-X-X-X-X-X+.z z z z z                         ",
"                ` ` +.S.F.F.F.F.F.F.F.$X-X-X-X-X-X=X=X=X .z z z z z                         ",
"                ` ` +.A.A.G.F.F.F.F.F.G.J.J.J.J.J.3.^ ^ Y z z E / / ` ` `                   ",
"                ` `  .S.A.G.G.A.F.F.F.F.F.F.F.F.G.{ z z z z z ^ ` ` ` ` `                   ",
"                x x W 5.M.M.M.M.5.5.5.M.M.M.5.5.M.] z z z z z Y ! ! ! ! ! U                 ",
"                o o : ` ] ` ` ` ) ) ] ] ) ) ] ] ] Y z z z z z z z z z z z z z z             ",
"                o o : / ` ` ] ( ) ( ( ( ( ( ] ( ] W z z z z z z z z z z z z z z             ",
"                o o # e r r r r t W a %.S a oXjXjX6.X X 8.@X@X9.D D                         ",
"                o o @ 0 0 0 0 0 u a a a a a +XlXlXq.. . [.#X#X}.G J                         ",
"                % % 5 0 0 0 0 0 y i p a a a OXkXkXK . . [.#X#X].Z Z                         ",
"          o o + 8 0 0 0 0 0 0 0 9 9 9 u a a |.#X#XG . . [.#X#XP C C                         ",
"          o o + 8 0 0 0 0 0 0 0 9 9 9 u a a |.#X#XG . . [.#X#XP C C                         ",
"          o o + 8 0 0 0 0 0 0 0 9 9 q y y y a 7.7.{..X.X].L L J                             ",
"          o o + 8 0 0 0 0 0 0 0 q 9 9 9 9 9 w w 0  X#X#X`.C C                               ",
"          o o + 6 7 7 7 7 7 7 7 7 7 7 7 7 7 7 7 7 0.XXXXP C C                               ",
"                o o o o o o o o o o o o o o o o o ; C C                                     ",
"                o o o o o o o o o o o o o o o o o ; C C                                     ",
"                          > 4 4 d N N F y.y.y.y.y.g.z.z.w.s s                               ",
"                            c c B i.i.f.Q.Q.Q.Q.Q.(._._.t.s s                               ",
"                            ,.,.p.h.h.l.~.~.!.Q.Q.^.).).t.f f                               ",
"                      ;.;.C.tXtXtXtXtXeX_._./.Q.Q.Q.Q.Q.e.M M b c c                         ",
"                      ;.;.C.tXtXtXtXtXeX_._./.Q.Q.Q.Q.Q.e.M M b c c                         ",
"                      ;.;.C.tXtXyXpXpXwXd.d.k.Q.Q.Q.Q.Q.e.M M b c c                         ",
"                      ;.;.C.tXtXuXfXfXqX;.;.s.Q.Q.Q.Q.Q.e.M M b c c                         ",
"                      ;.;.n.0X0XrXiXiXW.-.-.u.j.j.j.j.j.V g g v c c                         ",
"                            :.:.;.;.,.%.l l m =.=.=.=.=.3 & &                               ",
"                            ;.;.;.;.;.%.l l m =.=.=.=.=.1 = *                               ",
"                      h h 1.Y.Y.Y.Y.Y.<.< < k n n m.>X>XE.Y.L...h h                         ",
"                      h h X.1X1X1X1X1Xa.& & 1 l l :XdXdXdXdXdXx.h h                         ",
"                      h h X.1X1X1X1X1Xa.& & < k j R.aXaXdXdXdXx.h h                         ",
"                      h h X.1X1X1X1X1Xa.& & = = = c.2X2X8XdXdXx.h h                         ",
"                      h h X.1X1X1X1X1Xa.& & & & & c.1X1X7XdXdXx.h h                         ",
"                          ' b.b.b.b.b.[           [ b.b.V.U.U.X.                            ",
"                            h h h h h h           h h h h h h                               ",
"                            h h h h h h           h h h h h h                               ",
"                            h h h h h h           h h h h h h                               "
};
