/* XPM */
static char *_214c2d032354753a65b214646e3893dpNtf5hDOUVM1oOxv[] = {
/* columns rows colors chars-per-pixel */
"46 46 181 2 ",
"   c None",
".  c #1C0A14",
"X  c #151615",
"o  c #161716",
"O  c #1A1619",
"+  c #1A1B1A",
"@  c #1C1E1C",
"#  c #1E1F1E",
"$  c #250D1B",
"%  c #270D1C",
"&  c #20171C",
"*  c #2F181E",
"=  c #1F201F",
"-  c #2D0F21",
";  c #2F0F22",
":  c #2C1B25",
">  c #321224",
",  c #301B25",
"<  c #331B24",
"1  c #361328",
"2  c #391429",
"3  c #3C142C",
"4  c #301C28",
"5  c #331D2A",
"6  c #321E2C",
"7  c #3D1432",
"8  c #3E1D35",
"9  c #3F1D35",
"0  c #3F1D36",
"q  c #262726",
"w  c #262826",
"e  c #272827",
"r  c #2A2C2A",
"t  c #2B2D2B",
"y  c #2D2B2C",
"u  c #3A202F",
"i  c #31282E",
"p  c #342530",
"a  c #352530",
"s  c #342630",
"d  c #3B2033",
"f  c #382332",
"g  c #4B1324",
"h  c #4B1427",
"j  c #41172F",
"k  c #5D182D",
"l  c #451332",
"z  c #411730",
"x  c #431731",
"c  c #451633",
"v  c #421636",
"b  c #4C1437",
"n  c #471934",
"m  c #491835",
"M  c #4B1836",
"N  c #4A1A36",
"B  c #4B1A37",
"V  c #4B1B37",
"C  c #49153B",
"Z  c #4A143B",
"A  c #4F153F",
"S  c #441C39",
"D  c #4C1B38",
"F  c #4D1B38",
"G  c #4F1C3A",
"H  c #4C1F3F",
"J  c #501C3A",
"K  c #501C3B",
"L  c #541E3E",
"P  c #63172A",
"I  c #6B192D",
"U  c #631930",
"Y  c #641A31",
"T  c #571A46",
"R  c #5A1F42",
"E  c #5B1F42",
"W  c #591947",
"Q  c #5A1848",
"!  c #611A4D",
"~  c #621B4F",
"^  c #631B4F",
"/  c #681B4C",
"(  c #641B50",
")  c #731E54",
"_  c #711E5A",
"`  c #5A2042",
"'  c #5B2043",
"]  c #5C2043",
"[  c #5D2044",
"{  c #672245",
"}  c #66244B",
"|  c #7C2346",
" . c #77264D",
".. c #6F2351",
"X. c #762A57",
"o. c #77205F",
"O. c #7B215A",
"+. c #792658",
"@. c #782160",
"#. c #792160",
"$. c #7C2264",
"%. c #7D2264",
"&. c #811E37",
"*. c #871F3A",
"=. c #80203D",
"-. c #83203E",
";. c #91213E",
":. c #91223F",
">. c #852447",
",. c #84274F",
"<. c #942240",
"1. c #9A284E",
"2. c #9D294E",
"3. c #962B57",
"4. c #9E2A53",
"5. c #A12545",
"6. c #A32646",
"7. c #AC284B",
"8. c #AE284B",
"9. c #A52F5E",
"0. c #832360",
"q. c #842E61",
"w. c #862F62",
"e. c #832468",
"r. c #84246A",
"t. c #88256D",
"y. c #952F60",
"u. c #972F61",
"i. c #8C3167",
"p. c #9A3064",
"a. c #96346E",
"s. c #8C2670",
"d. c #8F2773",
"f. c #902773",
"g. c #942877",
"h. c #962978",
"j. c #97297A",
"k. c #992A7A",
"l. c #9A2A7C",
"z. c #9D2B7E",
"x. c #993570",
"c. c #9E3774",
"v. c #A93060",
"b. c #AE2F7F",
"n. c #A53979",
"m. c #A53A79",
"M. c #A93B7C",
"N. c #C12E55",
"B. c #C62E55",
"V. c #A32C82",
"C. c #A52D84",
"Z. c #AC2F8A",
"A. c #AD2F8B",
"S. c #B33F84",
"D. c #B43E84",
"F. c #B53F84",
"G. c #B63F86",
"H. c #B0308D",
"J. c #BB3396",
"K. c #BF3499",
"L. c #CC3695",
"P. c #C0349A",
"I. c #C6369F",
"U. c #C836A0",
"Y. c #D239A8",
"T. c #E13DB4",
"R. c #EA3FBB",
"E. c #BA4189",
"W. c #BB4189",
"Q. c #C44590",
"!. c #C84693",
"~. c #CC4796",
"^. c #CE4898",
"/. c #CF4899",
"(. c #D44A9B",
"). c #DA4CA0",
"_. c #EA51AC",
"`. c #EF53B0",
"'. c #F756B5",
"]. c #FF59BB",
"[. c #F743C6",
/* pixels */
"                                                                                            ",
"                                ^ ^ ^ ^ ^ ^ ^ ^ ^ ^ ^                                       ",
"                                ^ ^ ^ ^ ^ ^ ^ ( ^ ^ ^                                       ",
"                                h.V.z.r.e.e.e.r.z.V.h.                                      ",
"                            ^ ^ P.[.R.H.Z.Z.Z.H.R.[.K.^ ^                                   ",
"                            ^ ^ P.[.R.H.Z.Z.Z.H.R.[.P.^ ^                                   ",
"                      ^ ^ d.Y.Y.I.K.J.Z.Z.Z.Z.A.J.K.I.Y.Y.d.^ ^                             ",
"                      ^ ^ d.[.[.U.Z.Z.Z.Z.Z.Z.Z.Z.Z.I.[.[.f.^ ^                             ",
"                      o.o.k.T.T.J.C.C.C.C.C.C.C.C.C.J.T.T.k.#.o.                            ",
"                  ^ ^ l.Z.Z.Z.Z.z.g.g.g.g.g.g.g.g.g.z.Z.Z.Z.Z.l.^ ^                         ",
"                  ^ ^ l.Z.Z.Z.Z.z.g.g.g.g.g.g.g.g.g.z.Z.Z.Z.Z.l.^ ^                         ",
"                  ^ ^ d.z.z.z.z.j.g.g.g.g.g.g.g.g.g.h.z.z.z.z.f.^ ^                         ",
"                  ^ ^ t.g.g.g.g.g.g.g.g.g.g.g.g.g.g.g.g.g.f.g.t.^ ^                         ",
"                  T T $.r.d.g.g.g.g.g.g.g.g.g.g.g.g.g.g.g.d.t.$.T T                         ",
"                  O O v A ^ g.g.g.g.g.g.g.g.g.g.g.g.g.g.f.^ T 7 O O                         ",
"                  X X 7 Z ^ g.g.g.g.g.g.g.g.g.g.g.g.g.g.g.^ Z 7 X X                         ",
"                  X X 4 f H _ o.o.$.$.$.$.$.$.$.$.$.@._ _ H f 6 X X                         ",
"                  X X e y p c Z Q ( ( ( ^ ^ ^ ^ ^ ^ Q Z Z p y q X X                         ",
"                  o X e t p Z Z W ^ ^ ^ ^ ^ ^ ^ ^ ^ W Z Z i t q X o                         ",
"            X X = e q t t y i i S A A A A A A A A A S i i y t t e e = X X                   ",
"            X X = t t t t t t t 8 Z Z Z Z Z Z Z Z Z 0 t t t t t t t = X X                   ",
"            X X = t t t t t t t f 8 0 0 0 0 0 0 0 0 f t t t t t t t = X X                   ",
"            X X = t t t t t t t y t t t t t t t t t t t t t t t t t = X X                   ",
"            X X = t t t t t t t t t t t t t t t t t t t t t t t t t = X X                   ",
"                + @ @ @ @ @ @ @ = + = = @ @ = & @ @ @ @ @ @ @ @ @ @ +                       ",
"                  o X X X X X o X X X o X X X o X X X X X X X X X X                         ",
"                  & O : 4 4 d u * * * * * * < * * * * * * : 4 : & &                         ",
"                  D D w.a.m.!.!.9.;.;.;.;.;.<.;.;.<.:.:.;.y.a.q.D N                         ",
"                  D D w.x.M.~.~.v.:.:.:.:.<.<.<.;.;.;.;.<.u.x.w.D D                         ",
"                  ` ` c.E.W.~.~.p.| >.8.8.8.8.8.8.8.8.8.8.4.3.,.D D                         ",
"                  } { E.!.!.~.~.i.}  .B.B.B.B.B.B.B.B.B.B.5.<.-.D D                         ",
"                  } } E.^.^.~.~.i.}  .N.B.B.B.B.B.B.B.B.B.2.:.-.D F                         ",
"                  } } (.'._.~.~.i.}  .N.B.B.B.B.B.B.B.B.B.*.I Y F F                         ",
"                  } } (.].`.~.~.i.}  .N.B.B.B.B.B.B.B.B.B.&.P k F F                         ",
"                  } } E.Q.E.m.m.X.[ { 1.2.2.2.2.2.2.2.2.2.Y g h D F                         ",
"                      } } } } } L B B [ [ [ [ [ [ [ [ [ E 1 $ $                             ",
"                      } } } } } L N B E [ [ [ [ [ [ [ [ [ 1 $ $                             ",
"                          n > > j N B J K K K K ` [ [ [ [ 1 $ $                             ",
"                            . . 2 N N N N N N B E [ [ [ [ 1 $ $                             ",
"                            . . 3 M N j j j j x ..+.+.+.+.x ; ;                             ",
"                                b b l % $ $ $ - C.L.L.L.L.) b b                             ",
"                                b b l % $ $ $ - b.L.L.L.L.) b b                             ",
"                                                0.0.0.0.0./                                 ",
"                                                b b b b b                                   ",
"                                                b b b b b                                   ",
"                                                                                            "
};
