/* XPM */
static char *d12391c8f66e4838f3c0407d119d0c78w4infwdsvJ7B3bxe[] = {
/* columns rows colors chars-per-pixel */
"46 46 161 2 ",
"   c None",
".  c #7C6E6A",
"X  c #647A79",
"o  c #697F7B",
"O  c #7B7877",
"+  c #7D7C78",
"@  c #8B655F",
"#  c #A37B5E",
"$  c #824E6E",
"%  c #84526F",
"&  c #855571",
"*  c #8A5571",
"=  c #855972",
"-  c #8F5973",
";  c #9A5F70",
":  c #8C6660",
">  c #8E6860",
",  c #926D62",
"<  c #916E6A",
"1  c #8D7A67",
"2  c #876074",
"3  c #8B6476",
"4  c #826D76",
"5  c #896977",
"6  c #8F6B78",
"7  c #976075",
"8  c #9A6175",
"9  c #946872",
"0  c #9D6D76",
"q  c #9E6778",
"w  c #847878",
"e  c #8C7A78",
"r  c #9E737B",
"t  c #907A7D",
"y  c #9B7B7C",
"u  c #94757A",
"i  c #A47D60",
"p  c #A16675",
"a  c #A56A76",
"s  c #A56C79",
"d  c #A96E7A",
"f  c #A3737A",
"g  c #AC737B",
"h  c #A47A7C",
"j  c #AA7B7D",
"k  c #B2767E",
"l  c #B4787F",
"z  c #6D847C",
"x  c #6F897C",
"c  c #7A847A",
"v  c #728C7E",
"b  c #7C8B7C",
"n  c #76947E",
"m  c #79937E",
"M  c #86857B",
"N  c #85907E",
"B  c #AA8466",
"V  c #AD8866",
"C  c #AA866C",
"Z  c #AE8968",
"A  c #B28D6A",
"S  c #B5916C",
"D  c #A3867F",
"F  c #BA9771",
"G  c #BE9B72",
"H  c #C0A07B",
"J  c #B47C83",
"K  c #B97E84",
"L  c #768E81",
"P  c #7D9585",
"I  c #7C9A81",
"U  c #9C8C82",
"Y  c #958783",
"T  c #819C85",
"R  c #869F88",
"E  c #8F9383",
"W  c #959586",
"Q  c #979A87",
"!  c #979F89",
"~  c #A38680",
"^  c #AC8681",
"/  c #AA8B83",
"(  c #A68C8B",
")  c #B18085",
"_  c #B88187",
"`  c #B58C86",
"'  c #B68588",
"]  c #BC8B8C",
"[  c #A59386",
"{  c #A29986",
"}  c #A19F88",
"|  c #B99D85",
" . c #B3978B",
".. c #AB9493",
"X. c #B29E9F",
"o. c #85A386",
"O. c #8BA48A",
"+. c #8CA989",
"@. c #91AC8C",
"#. c #9CAB8D",
"$. c #97B48F",
"%. c #9AB38F",
"&. c #9BB690",
"*. c #9EBA92",
"=. c #AFA38D",
"-. c #A0A78B",
";. c #B1A18B",
":. c #B0AE91",
">. c #A1BD94",
",. c #ADB694",
"<. c #B1BF97",
"1. c #C48E8F",
"2. c #C79192",
"3. c #C99695",
"4. c #CD9A99",
"5. c #D09D9B",
"6. c #C6AE93",
"7. c #D2A29E",
"8. c #D7A8A4",
"9. c #DCAEA8",
"0. c #CBB8A5",
"q. c #DDB1A9",
"w. c #A5C196",
"e. c #AAC699",
"r. c #ADCA9B",
"t. c #BFC297",
"y. c #B2C59A",
"u. c #B1CE9D",
"i. c #B4CB9C",
"p. c #B3D09E",
"a. c #B3D09D",
"s. c #B5D29F",
"d. c #B6D39F",
"f. c #B7D39F",
"g. c #B6D29F",
"h. c #B6D19E",
"j. c #B8D49F",
"k. c #BCD59F",
"l. c #BAD6A0",
"z. c #B9D5A0",
"x. c #BCD7A0",
"c. c #BFD9A0",
"v. c #BDD8A0",
"b. c #C2CC9A",
"n. c #C1DBA0",
"m. c #C2DBA0",
"M. c #C4DDA1",
"N. c #C6DEA1",
"B. c #C7DFA1",
"V. c #C5DDA1",
"C. c #C3DCA1",
"Z. c #D0C4BB",
"A. c #C7BDC2",
"S. c #CFCACF",
"D. c #D3CBC7",
"F. c #D3CED4",
"G. c #D7D3D6",
"H. c #D7D6DC",
"J. c #D8D5DA",
"K. c #D9D8DF",
"L. c #DAD9E0",
/* pixels */
"                                                                                            ",
"                                  X X X X X X X X X X X X X X                               ",
"                                L P P P P P P P P P P P P L L                               ",
"                          o o z R >.u.z.z.z.l.z.z.z.z.u.>.>.>.L o                           ",
"                    X X z @.*.r.r.z.z.z.C.N.N.N.c.d.k.N.C.k.s.>.@.o X X                     ",
"                  o T O.+.w.r.s.z.p.z.l.N.N.N.N.M.d.M.N.N.k.s.r.>.T T T L                   ",
"                o L >.r.z.z.d.d.p.p.z.x.N.B.B.N.k.d.C.N.B.c.s.s.u.>.*.*.L X                 ",
"              X @.*.p.x.C.C.N.B.l.z.c.M.N.B.N.l.d.d.d.d.d.d.s.s.z.p.p.p.*.+.X               ",
"          X P O.&.>.z.c.B.B.B.B.M.M.N.B.N.c.x.s.d.d.k.m.m.M.k.j.i.f.s.s.>.*.O.P X           ",
"          X T >.>.w.z.c.M.M.M.B.N.B.M.N.N.l.s.s.s.s.m.B.b.b.b.j.k.y.<.<.>.*.*.T X           ",
"          X O.u.z.u.z.p.s.s.l.B.B.N.k.p.s.s.s.s.s.s.c.b.j a d t.b.g p ; #.*.*.T X           ",
"      X L @.>.z.p.z.u.z.s.s.d.k.l.z.s.s.s.s.s.s.s.s.=.` 7.4.2.` D k k g 9 t r.>.@.z X       ",
"      X z *.e.p.z.u.u.z.u.z.s.s.p.z.p.z.s.s.s.s.s.s./ g 7.7.2.k d l l l * 3 z.e.*.z X       ",
"      X z *.e.z.p.z.z.z.p.p.s.s.z.p.z.p.s.s.s.s.s.s.D p 4.2.l l l k l l * 3 p.e.*.z X       ",
"      X z *.>.>.~ J y :.r./ h r ! >.r.z.s.s.s.s.s.s.y.,.f d l g g J a * Q #.>.>.*.z X       ",
"      X z >.-.{ ] ] _  .=.J s s J W r.p.s.s.s.s.s.s.d.y.D y q 8 - - J Y %.*.>.@.R z         ",
"      X z *.[ a 7.q.4.K d l l l 3 = ,.s.p.p.p.s.s.s.s.u.>.W = = = = U u.>.*.*.T X           ",
"      X z *.U ; 4.4.l l l l l l - = #.*.>.>.>.p.s.s.w.w.u.u.y.r.e.%.*.>.*.*.*.T X           ",
"        z T E U ) J l k g k g 8 u Y &.*.*.*.*.e.e.e.>.>.e.e.e.e.e.*.*.*.*.*.*.@.T z         ",
"          X T *.y 0 g a p d a 2 W *.*.*.*.*.*.*.*.*.*.*.*.*.*.*.*.*.*.*.*.*.*.*.*.z X       ",
"          X I *.*.#.% $ % % 4 *.*.*.*.*.*.*.*.*.*.*.*.*.*.*.*.*.*.*.*.*.*.*.*.&.*.z X       ",
"      X z x o.*.*.%.W W #.N #.&.*.*.*.*.*.*.*.*.*.*.*.*.*.*.*.*.*.*.*.*.*.*.*.$.o.o X       ",
"      X z n o.$.$.*.*.&.*.$.$.>.*.*.$.$.$.$.$.*.*.*.*.*.*.*.*.$.$.$.$.$.$.$.$.o.n o X       ",
"      X z n n n n m *.o.n n n w.*.&.I n n n I &.*.*.*.*.*.*.>.I n n n n n n n n n o X       ",
"      X o n n n n n e.+.n n n w.*.*.m n n n n h h h -.-.D f 0 b n n n n n n n n n o X       ",
"      X o n n n n n $.n n n n @.@.@.+.o.o.N M ' ' J [ { g a a w c o.o.o.n n n n x o X       ",
"      X o n n n n n n n n n n n n n &.*.*.D g q.9.5.J d k l l - 5 %.*.>.m n n x X           ",
"          z x n n n $.$.*.$.$.n n n I I m u q 4.3.K l k l l l - 2 m m n n n n n X           ",
"          X z n n n o.+.+.@.@.n n n n n n M e J J g g k l g 8 4 O n n n n n n x X           ",
"          X z n n n n n n n n n n n n n n n m 9 p J d s g q & c n n n n n n n z X           ",
"            o X n n n n n n n n n n n n n n n v + % % % % . n n n n n n n n X o             ",
"                x x x n n n n n n n n n n n m P b O O O O c n n n z z z z z                 ",
"                X X X x n v v n v v n x n n x n v n x n v n v n x o X X X X                 ",
"                      X X X X X X X X X X X X X X X X X X X X X X                           ",
"                                . . 1 1 1 1 1 1 1 1 1 1 . .                                 ",
"                                @ : i i # # # # # # # # @ :                                 ",
"                                > > B B # # # # # # B B > :                                 ",
"                              K.( > B Z V V V V V V Z B @ ( K.                              ",
"                              K...@ B A S A Z S S S S Z @ ..K.                              ",
"                      L.K.K.H.F..., B S G S A G F G G S , ..G.J.K.K.L.                      ",
"                    K.K.K.K.A.< C F G G G G G G G G G G F C < A.K.K.K.K.                    ",
"                    K.K.K.K.S.X.| G G G G G G G G G G G G | X.S.K.K.K.K.                    ",
"                    K.K.K.K.K.K.0.H H H H G G G G H H H H 0.K.K.K.K.K.K.                    ",
"                      L.K.K.K.K.J.G.G.G.G.6.G G 6.J.G.G.G.J.K.K.K.K.L.                      ",
"                              K.K.K.K.K.K.D.Z.Z.D.K.K.K.K.K.K.                              ",
"                              K.K.K.K.K.K.K.K.K.K.K.K.K.K.K.K.                              "
};
